<svg width="94" height="94" viewBox="0 0 94 94" fill="none" xmlns="http://www.w3.org/2000/svg">
<path fill-rule="evenodd" clip-rule="evenodd" d="M93.4493 46.7262C93.4493 72.5308 72.5293 93.4497 46.7247 93.4497C20.9188 93.4497 0 72.5308 0 46.7262C0 20.9204 20.9188 0.00157166 46.7247 0.00157166C72.5293 0.00157166 93.4493 20.9204 93.4493 46.7262Z" fill="white"/>
<path fill-rule="evenodd" clip-rule="evenodd" d="M47.5139 75.4419C48.203 75.8414 48.6269 76.5769 48.6269 77.3735C48.6269 78.3374 49.2463 79.1939 50.1627 79.4956C51.1303 79.8121 52.1908 79.4578 52.7723 78.6233C53.5359 77.5286 53.4785 76.0601 52.6306 75.0277L52.1749 74.4742C51.6801 73.8719 50.9666 73.4932 50.1908 73.4199C49.283 73.3356 48.5646 72.6172 48.4791 71.7106C48.374 70.5976 49.25 69.6361 50.3667 69.6361C51.2378 69.6361 52.0319 70.1346 52.4107 70.9202L53.2122 72.583C53.6349 73.459 54.5695 73.966 55.5347 73.8414C56.5817 73.7045 57.3954 72.8591 57.4895 71.8072L57.5518 71.123C57.5982 70.6074 58.0821 70.2445 58.5903 70.3459C59.9819 70.6245 61.404 70.043 62.2006 68.8676C62.9165 67.8133 63.0277 66.4596 62.4938 65.3026C62.0503 64.3423 61.211 63.6214 60.1945 63.3307L58.6538 62.8884C57.8499 62.6575 57.2268 62.0209 57.0118 61.2134C56.6624 59.8975 55.4712 58.9824 54.1114 58.9824H53.7509C53.2232 58.9824 52.776 58.5951 52.7015 58.0735C52.5414 56.9568 51.7717 56.0234 50.7063 55.6532C49.7094 55.3086 48.6049 55.5921 47.8963 56.3728C47.1743 57.1694 47.0093 58.3239 47.4785 59.2903L47.5347 59.4039C47.8511 60.0564 48.3838 60.578 49.0411 60.8823C49.7632 61.217 50.2128 61.9525 50.1798 62.7479C50.137 63.8023 49.2696 64.6343 48.2152 64.6343C47.1291 64.6343 46.1993 63.8523 46.0124 62.7833L45.9611 62.484C45.7864 61.487 45.283 60.5756 44.5292 59.9C43.7607 59.2109 42.6196 59.1413 41.7741 59.7338C40.9323 60.3251 40.6061 61.4174 40.9885 62.374L41.1413 62.7552C41.3111 63.1804 41.3881 63.6373 41.3673 64.0943C41.3062 65.4174 40.4949 66.5903 39.2769 67.112L39.0704 67.1999C38.1858 67.5799 37.1632 67.437 36.4155 66.8298C35.4638 66.0564 35.2561 64.688 35.9329 63.6654C36.2567 63.1792 36.4913 62.6404 36.6269 62.0735L36.9348 60.798C37.195 59.7131 36.7368 58.5817 35.7937 57.9843C35.1718 57.5909 34.4143 57.4785 33.7057 57.6739L32.7649 57.933C32.1528 58.1016 31.4955 57.9537 31.0154 57.5371C30.33 56.9421 30.1602 55.9464 30.6098 55.1584C31.1033 54.2958 31.1547 53.25 30.749 52.3434L30.6208 52.0576C29.8046 50.231 30.49 48.082 32.2151 47.0679C33.0789 46.5597 34.1431 46.5328 35.0313 46.9958C35.9904 47.4955 36.5915 48.4876 36.5915 49.5701C36.5915 51.1058 37.2011 52.5768 38.286 53.6629L39.7155 55.0924C40.6135 55.9892 41.8755 56.4253 43.1364 56.2726C44.5597 56.1003 45.7912 55.2023 46.3923 53.9L46.6196 53.4076C47.0154 52.5499 46.5121 51.5469 45.5884 51.3502C44.721 51.1657 44.2665 50.2066 44.6721 49.4186C44.9604 48.859 45.6007 48.5731 46.2103 48.7332L47.1058 48.969C48.0625 49.2207 49.0826 49.0056 49.856 48.3899C50.8016 47.6385 51.2305 46.4106 50.9605 45.2341C50.6013 43.6678 49.3026 42.49 47.7082 42.286C46.7369 42.1614 45.7534 42.3813 44.9287 42.9079L42.8859 44.2115C42.4363 44.4986 41.8523 44.4693 41.4333 44.1382C40.9055 43.7215 40.7992 42.9628 41.1938 42.4179L41.432 42.0881C41.8755 41.4747 42.016 40.6916 41.8144 39.961C41.5615 39.0483 40.7723 38.3886 39.8291 38.3019C39.1009 38.2359 38.3862 38.523 37.9061 39.074L37.4393 39.6091C36.8859 40.2469 35.8816 40.1931 35.3978 39.5004C35.1681 39.1693 35.1046 38.7502 35.2268 38.3654L35.5896 37.2243C35.8205 36.4998 35.6116 35.7081 35.0533 35.1925C34.3483 34.5413 33.2756 34.4961 32.5194 35.0874L32.209 35.3293C31.5578 35.7973 30.4668 35.6274 29.8266 35.1436C29.0899 34.5865 28.8846 33.5676 29.3465 32.7685C29.7203 32.1235 30.4497 31.7692 31.1876 31.8742L32.264 32.0282C33.7289 32.2371 35.2243 32.0025 36.5548 31.3538C37.2842 30.9982 37.746 30.2578 37.746 29.4478C37.746 28.7759 37.4271 28.143 36.8871 27.7423L36.1773 27.2181C35.2732 26.5498 34.7808 25.46 34.8761 24.3397C34.9506 23.4637 34.6647 22.595 34.0856 21.9341L33.7973 21.6042C32.6012 20.237 30.8724 19.4527 29.0557 19.4527C27.3917 19.4527 25.7948 20.1112 24.6146 21.2829L23.8645 22.0281C23.2536 22.6353 22.4448 23.0019 21.5859 23.063L21.4087 23.0752C19.8889 23.1827 18.6305 24.3006 18.3458 25.7985C18.1442 26.8553 17.3293 27.6897 16.2762 27.9145C15.0984 28.1674 14.1418 29.0227 13.7606 30.1662C13.3427 31.4197 13.6873 32.8003 14.6451 33.7105C15.3134 34.3458 15.7618 35.1778 15.9231 36.0856L16.2395 37.8706C16.5291 39.4967 15.8547 41.1437 14.5071 42.1003C13.366 42.9103 11.9023 43.1095 10.5865 42.6354C8.96277 42.0502 7.72269 40.7185 7.25598 39.0569L7.03729 38.2786C6.63044 36.8309 7.38671 35.3086 8.78684 34.7588C9.53455 34.4643 10.1295 33.8767 10.4313 33.1326L13.2755 26.1234C13.4771 25.6262 13.4332 25.063 13.157 24.6036C12.6329 23.7325 11.4686 23.5089 10.6598 24.1259L7.6054 26.457C6.42275 27.3586 5.86196 28.8577 6.16374 30.3153C6.33722 31.1571 5.99269 32.0208 5.28774 32.512C4.44351 33.0996 3.30117 33.0068 2.56446 32.2896L2.35309 32.0856C0.833234 36.6916 0 41.6091 0 46.7258C0 53.3929 1.40624 59.7302 3.92304 65.4687C5.99147 66.8994 8.30424 67.9452 10.7636 68.4962C12.1308 68.8041 13.2633 69.7595 13.796 71.0558L15.1094 74.2556C15.6176 75.4907 16.7637 76.3472 18.0929 76.484C19.906 76.6697 21.5004 77.7632 22.3263 79.3881C22.672 80.0662 23.4417 80.4132 24.1785 80.2214C24.9054 80.0332 25.4075 79.3698 25.3917 78.6184L25.3355 75.944C25.3281 75.5763 25.5102 75.2305 25.8193 75.0301C26.3141 74.7064 26.9775 74.8481 27.2976 75.3454L28.5462 77.2879C28.8578 77.773 29.4198 78.0357 29.9916 77.9623C30.655 77.8793 31.1828 77.3637 31.2829 76.7015L31.669 74.1248C31.7032 73.9049 31.7631 73.6899 31.8474 73.4834C32.4974 71.911 34.137 70.9874 35.8169 71.2464C37.0875 71.4419 38.0282 72.5292 38.0392 73.8133C38.0429 74.1224 37.9904 74.429 37.8865 74.7186L36.9959 77.2097C36.3605 78.9898 36.8761 80.9776 38.2995 82.2226C39.4051 83.1902 40.958 83.4639 42.3288 82.9312C43.812 82.3545 44.8028 80.9434 44.8432 79.3527L44.8713 78.2971C44.8945 77.3955 45.1975 76.5243 45.7375 75.8023C46.1529 75.2501 46.9165 75.0949 47.5139 75.4419Z" fill="#EFEFEF"/>
<path fill-rule="evenodd" clip-rule="evenodd" d="M79.4994 38.1175L78.6955 36.6795C78.3229 36.0161 77.8073 35.4455 77.183 35.0093C75.9515 34.148 74.3998 33.8792 72.9508 34.2775C72.1249 34.5035 71.2489 34.451 70.4976 34.0405L70.2544 33.9073C69.2758 33.371 68.6136 32.3972 68.4768 31.2879L68.4572 31.1339C68.3558 30.3068 68.5049 29.4516 68.9557 28.7503C69.7413 27.5298 71.1378 26.9555 72.4805 27.1865C74.2935 27.4968 75.8928 28.5585 76.8837 30.1077C77.2832 30.732 77.9686 31.1132 78.7077 31.1437L80.318 31.2072C80.8727 31.228 81.4053 30.9702 81.7242 30.5145C82.1714 29.8768 83.0437 29.6642 83.7536 30.0845C84.2642 30.3862 84.5172 30.9849 84.4817 31.5774C84.4328 32.4119 84.0602 33.1987 83.4383 33.7668L83.3638 33.8352C82.9448 34.2201 82.6405 34.7308 82.5721 35.2964C82.4353 36.4156 83.0938 37.4186 84.0908 37.7742V37.7754C85.0156 38.104 86.0456 37.9098 86.7847 37.2622C87.2685 36.8383 87.5862 36.2567 87.6803 35.6202C87.7731 34.9849 88.3669 34.5548 88.9802 34.7418L92.1299 35.707C91.1024 31.4589 89.4958 27.4406 87.3968 23.735C86.511 24.4681 85.5544 25.1131 84.5025 25.5799C83.9173 25.8401 83.2221 25.7961 82.7432 25.3722C82.0187 24.732 82.0358 23.6483 82.7065 23.0288L85.4164 20.5255C83.2123 17.2781 80.6051 14.3287 77.6753 11.735C77.4945 13.0679 77.5642 14.4338 77.9087 15.7558L78.0321 16.231C78.1897 16.837 77.9991 17.4821 77.5287 17.9048C76.9948 18.385 76.1995 18.2481 75.6643 17.7692C75.161 17.3196 74.3913 17.3233 73.8916 17.79C73.1915 18.4424 72.9789 19.4638 73.3565 20.3422L73.8708 21.5334C74.1298 22.1333 74.0089 22.8578 73.5128 23.2817C72.8616 23.8376 71.9294 23.7313 71.4151 23.118C70.3118 21.8046 69.7608 20.1137 69.8781 18.4021L69.883 18.3312C69.9184 17.8278 69.701 17.3391 69.3039 17.0264C68.9215 16.7258 68.4169 16.6244 67.9478 16.7576C66.263 17.2304 64.4523 16.7454 63.2294 15.4919L62.5207 14.7661C62.2043 14.4412 61.7168 14.3532 61.3075 14.5462C60.7993 14.7845 60.5647 15.3782 60.7712 15.9011L61.9221 18.8016C62.1176 19.2952 62.1396 19.8401 61.9844 20.3471C61.6777 21.3526 60.737 22.0294 59.6863 22.0026L58.4034 21.9671C57.4651 21.9427 56.6343 21.3599 56.2898 20.4876C56.0613 19.9097 55.6765 19.4076 55.178 19.0362L53.4822 17.7716C53.0534 17.4528 52.7394 17.0056 52.5842 16.4937C52.3509 15.7228 51.7583 15.1131 50.996 14.8541L50.6453 14.7356C49.2818 14.2738 48.6502 12.705 49.3136 11.4283C49.6215 10.8358 49.5103 10.1125 49.0387 9.63967L49.0179 9.6189C48.4938 9.09354 47.6801 8.99214 47.0448 9.3721L46.9825 9.40998C46.5036 9.69587 46.2006 10.2029 46.1774 10.76C46.1432 11.548 45.3869 12.1003 44.6209 11.917L44.4877 11.8852C42.1688 11.3257 40.3814 9.47595 39.9025 7.13996L39.8756 7.01168C39.6361 5.84002 38.6538 4.96769 37.4626 4.86873C37.3343 4.85773 37.2085 4.84674 37.09 4.83696C36.5231 4.78809 35.9672 4.97624 35.5481 5.36109L35.3942 5.5016C33.4883 7.25237 31.3453 8.73313 29.035 9.89868L28.9177 9.9561C25.3453 11.757 22.0466 14.0233 19.0985 16.6977C17.8621 17.8181 16.8407 18.7417 16.8407 18.7417C16.3446 19.1889 16.165 19.9158 16.4509 20.5743C16.7087 21.1669 17.3318 21.5188 17.9793 21.5188H18.0722C18.4864 21.5188 18.8847 21.3563 19.1828 21.0679L22.4033 17.939L23.4015 16.9812C24.4082 16.0123 25.8328 15.6177 27.195 15.9207L27.3172 15.9488C28.8835 16.2982 30.506 16.3312 32.0857 16.0465L32.137 16.038C32.8603 15.9073 33.3844 15.2781 33.3832 14.5438V14.5316C33.3832 14.0881 33.1388 13.7032 32.7858 13.4344C32.1883 12.9799 32.0857 12.1149 32.5707 11.5334L34.1712 9.61157C34.4461 9.28047 34.8126 9.03734 35.2231 8.9115L35.2537 8.90173C36.3154 8.57674 37.4418 9.16563 37.7778 10.2237L37.7949 10.2774C38.2421 11.6788 39.4186 12.7124 40.8554 12.9738C41.0509 13.0093 41.2427 13.0447 41.4248 13.0777C42.0198 13.1864 42.5256 13.6262 42.6453 14.2188C42.8298 15.1363 42.1419 15.9439 41.2586 15.9586L40.4278 15.9708C39.0741 15.9928 37.8817 16.8663 37.4541 18.1504L37.4406 18.1895C37.2012 18.9103 37.3893 19.6959 37.9208 20.2237H37.922C38.2787 20.578 38.4864 21.0545 38.5035 21.5579C38.572 23.4833 39.1279 25.3599 40.4022 26.8053L41.4687 28.016C42.2849 28.9409 42.8017 30.0942 42.9507 31.3221C43.0057 31.7778 42.9336 32.2408 42.7662 32.6685L42.6978 32.8419C42.1676 34.2005 42.5915 35.746 43.7424 36.6428L43.7791 36.6709C44.4865 37.2268 45.3673 37.4822 46.2519 37.3881C46.9593 37.3123 47.8243 37.2219 48.5573 37.1437C49.536 37.0411 50.3887 36.4473 50.831 35.5701L50.8506 35.5286C51.3833 34.4644 51.2318 33.1938 50.4694 32.2897L50.3924 32.1993C49.6154 31.2781 49.3344 30.038 49.6361 28.8737L49.7095 28.5878C49.9257 27.757 50.66 27.1632 51.5189 27.1266L51.5616 27.1242C52.3093 27.0924 53.029 27.4186 53.4981 28.0026L53.6337 28.17C54.1786 28.8493 54.4071 29.6837 54.2935 30.5084L54.2874 30.5499C54.1652 31.4418 54.4523 32.341 55.0729 32.9934L56.1566 34.1346C57.0546 35.0802 58.2739 35.652 59.5751 35.7399L59.6496 35.746C60.8543 35.8267 62.0467 35.4748 63.0131 34.7528C63.1573 34.644 63.3027 34.5365 63.4432 34.4327C64.0834 33.9599 64.9569 33.9623 65.5947 34.44L65.6228 34.4608C66.1713 34.8713 66.4426 35.5542 66.3265 36.2286L66.1823 37.0643C66.0553 37.7962 66.2654 38.5683 66.8066 39.0765C67.6839 39.9024 68.9911 39.8646 69.8121 39.0912L69.9172 38.9922C70.4267 38.5121 71.1378 38.2616 71.8207 38.4095C72.6381 38.5866 73.2379 39.2122 73.4078 39.9794C73.7266 41.4174 74.9569 42.4693 76.4304 42.473L76.8262 42.4742C77.4786 42.4767 78.1323 42.3069 78.6589 41.9232C79.8916 41.0228 80.2117 39.3881 79.4994 38.1175Z" fill="#EFEFEF"/>
<path fill-rule="evenodd" clip-rule="evenodd" d="M73.4663 8.42039C70.8188 6.56821 67.9782 4.97627 64.969 3.69954L64.0649 4.93229C63.1401 6.19313 62.9043 7.83272 63.4357 9.30371C63.9623 10.76 65.1731 11.8633 66.6709 12.2506L66.7601 12.2738C68.0027 12.5963 69.1584 13.1938 70.1419 14.0197C70.9031 14.6586 71.9428 14.8517 72.8823 14.5291C73.9367 14.1651 74.5745 13.0924 74.3863 11.9916C74.2715 11.3147 73.8573 10.7258 73.2574 10.3886C72.6258 10.0331 72.5537 9.14977 73.1206 8.6965L73.4663 8.42039Z" fill="#B1B9BC"/>
<path fill-rule="evenodd" clip-rule="evenodd" d="M14.2591 48.6721C18.11 46.1504 23.2756 47.228 25.7973 51.079C28.319 54.9299 27.2414 60.0955 23.3904 62.6172C19.5395 65.1389 14.3739 64.0613 11.8522 60.2103C9.33053 56.3594 10.4081 51.1938 14.2591 48.6721Z" fill="#DBDBDB"/>
<path fill-rule="evenodd" clip-rule="evenodd" d="M15.1326 59.8585C12.6109 56.0076 13.6885 50.8408 17.5395 48.3191C18.1931 47.8915 18.8858 47.575 19.5957 47.3502C17.7826 47.1804 15.9011 47.5958 14.2578 48.6722C10.4069 51.1939 9.32928 56.3594 11.851 60.2104C13.9451 63.4077 17.8608 64.6857 21.3342 63.5861C18.8956 63.3576 16.5792 62.0662 15.1326 59.8585Z" fill="#ACA6A2"/>
<path fill-rule="evenodd" clip-rule="evenodd" d="M18.8162 47.6875C17.2706 47.6875 15.7667 48.1371 14.4655 48.9886C10.7954 51.3918 9.76542 56.3326 12.1686 60.0027C13.6445 62.2556 16.1356 63.6008 18.8308 63.6008C20.3776 63.6008 21.8828 63.1512 23.1839 62.2996C26.8528 59.8964 27.8828 54.9557 25.4808 51.2855C24.0049 49.0326 21.515 47.6875 18.8162 47.6875ZM18.8308 64.3583C15.8791 64.3583 13.1521 62.8861 11.5358 60.4169C8.90289 56.3986 10.0318 50.9875 14.0513 48.3546C15.4747 47.4224 17.1216 46.93 18.8162 46.93C21.7704 46.93 24.4973 48.4022 26.1137 50.8714C28.7454 54.8897 27.6177 60.3021 23.5981 62.9337C22.1748 63.8659 20.5254 64.3583 18.8308 64.3583Z" fill="white"/>
<path fill-rule="evenodd" clip-rule="evenodd" d="M45.0411 80.28C43.5848 79.3515 43.1572 77.4162 44.0857 75.9587C45.0154 74.5023 46.9495 74.0747 48.407 75.0033C49.8646 75.933 50.2922 77.8671 49.3624 79.3246C48.4339 80.7822 46.4986 81.2098 45.0411 80.28Z" fill="#DBDBDB"/>
<path fill-rule="evenodd" clip-rule="evenodd" d="M49.3636 79.3246C49.944 78.4144 49.994 77.3173 49.5958 76.3961C49.5176 76.7394 49.3929 77.0778 49.1914 77.3918C48.2628 78.8493 46.3276 79.277 44.8712 78.3472C44.3239 77.999 43.9219 77.5091 43.6825 76.9556C43.4015 78.2055 43.8987 79.5519 45.0423 80.28C46.4986 81.2098 48.4339 80.7822 49.3636 79.3246Z" fill="#ACA6A2"/>
<path fill-rule="evenodd" clip-rule="evenodd" d="M46.7283 74.8909C45.7814 74.8909 44.9127 75.3673 44.4045 76.1627C44.0099 76.7821 43.8791 77.5188 44.038 78.236C44.1968 78.9532 44.6256 79.5653 45.2451 79.9611C45.6886 80.2434 46.1992 80.3924 46.7209 80.3924C47.6666 80.3924 48.5352 79.9171 49.0435 79.1206C49.4381 78.5011 49.5688 77.7656 49.41 77.0485C49.2512 76.3301 48.8224 75.718 48.2029 75.3221C47.7594 75.0399 47.2512 74.8909 46.7283 74.8909ZM46.721 81.1499C46.0539 81.1499 45.4027 80.9593 44.8371 80.6001C44.0466 80.0955 43.5005 79.3136 43.2977 78.3997C43.0961 77.4847 43.2622 76.5451 43.7656 75.7547C44.4143 74.7394 45.5212 74.1322 46.7283 74.1322C47.3954 74.1322 48.0454 74.324 48.6111 74.6832C49.4015 75.1878 49.9477 75.9697 50.1505 76.8836C50.3533 77.7999 50.1859 78.7382 49.6825 79.5286C49.0338 80.5439 47.9269 81.1499 46.721 81.1499Z" fill="white"/>
<path fill-rule="evenodd" clip-rule="evenodd" d="M86.0638 51.3575C84.3936 52.8371 81.8402 52.6831 80.3594 51.0142C78.8786 49.3429 79.0326 46.7894 80.7027 45.3087C82.3729 43.8291 84.9275 43.9831 86.4071 45.6532C87.8878 47.3233 87.7339 49.8768 86.0638 51.3575Z" fill="#B1B9BC"/>
<path fill-rule="evenodd" clip-rule="evenodd" d="M86.4071 45.6532C85.3625 44.4742 83.7864 44.0674 82.3607 44.44C82.8103 44.6648 83.2281 44.9727 83.5824 45.3722C85.0632 47.0424 84.9092 49.5958 83.2391 51.0766C82.7479 51.5115 82.1774 51.7889 81.5812 51.9453C83.0143 52.6588 84.7932 52.4828 86.0638 51.3576C87.7339 49.8768 87.8879 47.3234 86.4071 45.6532Z" fill="#7C8585"/>
<path fill-rule="evenodd" clip-rule="evenodd" d="M83.382 44.6696C82.4865 44.6696 81.6252 44.9983 80.9556 45.592C80.2226 46.242 79.7876 47.1363 79.7278 48.1137C79.6691 49.0887 79.9929 50.0307 80.6429 50.7625C81.3368 51.5456 82.3374 51.9952 83.3845 51.9952C84.28 51.9952 85.1414 51.6678 85.8121 51.0728C86.5439 50.4253 86.9801 49.5298 87.0387 48.5536C87.0986 47.5762 86.7724 46.6366 86.1224 45.9036C85.4285 45.1192 84.4303 44.6696 83.382 44.6696ZM83.3845 52.7528C82.1212 52.7528 80.9141 52.2116 80.076 51.2659C79.2916 50.3814 78.9007 49.2451 78.9715 48.0674C79.0436 46.8884 79.569 45.8084 80.4523 45.0252C81.2611 44.3068 82.302 43.9122 83.3821 43.9122C84.6478 43.9122 85.8524 44.4559 86.6906 45.4015C87.4737 46.2848 87.8659 47.4211 87.795 48.5988C87.7242 49.7766 87.1988 50.8579 86.3155 51.6422C85.5055 52.3582 84.4657 52.7528 83.3845 52.7528Z" fill="#C4CBCD"/>
<path fill-rule="evenodd" clip-rule="evenodd" d="M61.2207 83.7718C61.2207 86.1433 59.2989 88.0663 56.9275 88.0663C54.556 88.0663 52.633 86.1433 52.633 83.7718C52.633 81.4004 54.556 79.4786 56.9275 79.4786C59.2989 79.4786 61.2207 81.4004 61.2207 83.7718Z" fill="#DBDBDB"/>
<path fill-rule="evenodd" clip-rule="evenodd" d="M57.0997 86.0454C54.9555 86.0454 53.195 84.4694 52.8737 82.4156C52.7295 82.8444 52.633 83.2952 52.633 83.7717C52.633 86.1432 54.556 88.0662 56.9275 88.0662C59.2989 88.0662 61.2207 86.1432 61.2207 83.7717C61.2207 83.5445 61.1877 83.3258 61.1535 83.1083C60.5842 84.8102 58.9947 86.0454 57.0997 86.0454Z" fill="#ACA6A2"/>
<path fill-rule="evenodd" clip-rule="evenodd" d="M56.9275 79.8573C54.7687 79.8573 53.0118 81.613 53.0118 83.773C53.0118 85.9306 54.7687 87.6875 56.9275 87.6875C59.0851 87.6875 60.842 85.9306 60.842 83.773C60.842 81.613 59.0851 79.8573 56.9275 79.8573ZM56.9275 88.445C54.3521 88.445 52.2543 86.3497 52.2543 83.773C52.2543 81.1964 54.3521 79.0986 56.9275 79.0986C59.5042 79.0986 61.5995 81.1964 61.5995 83.773C61.5995 86.3497 59.5042 88.445 56.9275 88.445Z" fill="white"/>
<path fill-rule="evenodd" clip-rule="evenodd" d="M38.666 12.4007C38.666 14.2138 37.195 15.6836 35.3819 15.6836C33.5688 15.6836 32.0991 14.2138 32.0991 12.4007C32.0991 10.5877 33.5688 9.11667 35.3819 9.11667C37.195 9.11667 38.666 10.5877 38.666 12.4007Z" fill="white"/>
<path fill-rule="evenodd" clip-rule="evenodd" d="M35.7606 11.1374C36.9971 11.1374 38.0612 11.829 38.6208 12.8393C38.6403 12.694 38.666 12.551 38.666 12.4007C38.666 10.5877 37.195 9.11667 35.3819 9.11667C33.5688 9.11667 32.0991 10.5877 32.0991 12.4007C32.0991 12.9774 32.2603 13.5113 32.5218 13.9817C32.738 12.3787 34.0978 11.1374 35.7606 11.1374Z" fill="#ACA6A2"/>
<path fill-rule="evenodd" clip-rule="evenodd" d="M35.3819 9.49671C33.7814 9.49671 32.4778 10.7991 32.4778 12.3996C32.4778 14.0013 33.7814 15.3049 35.3819 15.3049C36.9836 15.3049 38.2872 14.0013 38.2872 12.3996C38.2872 10.7991 36.9836 9.49671 35.3819 9.49671ZM35.3819 16.0624C33.3623 16.0624 31.7191 14.4204 31.7191 12.3996C31.7191 10.3813 33.3623 8.73926 35.3819 8.73926C37.4026 8.73926 39.0447 10.3813 39.0447 12.3996C39.0447 14.4204 37.4026 16.0624 35.3819 16.0624Z" fill="#F3F2E8"/>
<path fill-rule="evenodd" clip-rule="evenodd" d="M16.3153 37.8975C16.3153 40.5927 14.1308 42.7772 11.4356 42.7772C8.74162 42.7772 6.55713 40.5927 6.55713 37.8975C6.55713 35.2036 8.74162 33.0191 11.4356 33.0191C14.1308 33.0191 16.3153 35.2036 16.3153 37.8975Z" fill="#DBDBDB"/>
<path fill-rule="evenodd" clip-rule="evenodd" d="M8.87723 37.977C8.87723 35.6373 10.5266 33.6862 12.7245 33.2133C12.3116 33.0997 11.8852 33.0191 11.4356 33.0191C8.74162 33.0191 6.55713 35.2036 6.55713 37.8975C6.55713 40.5927 8.74162 42.7772 11.4356 42.7772C11.7899 42.7772 12.1344 42.7345 12.4667 42.6624C10.402 42.0943 8.87723 40.2238 8.87723 37.977Z" fill="#ACA6A2"/>
<path fill-rule="evenodd" clip-rule="evenodd" d="M11.4368 33.3977C8.9542 33.3977 6.93587 35.4161 6.93587 37.8975C6.93587 40.3801 8.9542 42.3984 11.4368 42.3984C13.917 42.3984 15.9353 40.3801 15.9353 37.8975C15.9353 35.4161 13.917 33.3977 11.4368 33.3977ZM11.4369 43.1559C8.53764 43.1559 6.17844 40.7967 6.17844 37.8975C6.17844 34.9995 8.53764 32.6403 11.4369 32.6403C14.3361 32.6403 16.6928 34.9995 16.6928 37.8975C16.6928 40.7967 14.3361 43.1559 11.4369 43.1559Z" fill="white"/>
<path fill-rule="evenodd" clip-rule="evenodd" d="M69.7229 76.4987C69.7229 78.3118 68.2531 79.7816 66.44 79.7816C64.6269 79.7816 63.1572 78.3118 63.1572 76.4987C63.1572 74.6844 64.6269 73.2147 66.44 73.2147C68.2531 73.2147 69.7229 74.6844 69.7229 76.4987Z" fill="#B1B9BC"/>
<path fill-rule="evenodd" clip-rule="evenodd" d="M68.3313 73.8207C68.374 74.0333 68.3973 74.2532 68.3973 74.478C68.3973 76.2911 66.9275 77.7609 65.1144 77.7609C64.4082 77.7609 63.7583 77.5336 63.2231 77.1549C63.5274 78.6528 64.8517 79.7817 66.44 79.7817C68.2531 79.7817 69.7229 78.3119 69.7229 76.4988C69.7229 75.3907 69.1706 74.4157 68.3313 73.8207Z" fill="#7C8585"/>
<path fill-rule="evenodd" clip-rule="evenodd" d="M66.4401 73.5946C64.8396 73.5946 63.536 74.897 63.536 76.4974C63.536 78.0992 64.8396 79.4028 66.4401 79.4028C68.0418 79.4028 69.3442 78.0992 69.3442 76.4974C69.3442 74.897 68.0418 73.5946 66.4401 73.5946ZM66.4401 80.1604C64.4205 80.1604 62.7773 78.5183 62.7773 76.4976C62.7773 74.4792 64.4205 72.836 66.4401 72.836C68.4596 72.836 70.1017 74.4792 70.1017 76.4976C70.1017 78.5183 68.4596 80.1604 66.4401 80.1604Z" fill="#C4CBCD"/>
<path fill-rule="evenodd" clip-rule="evenodd" d="M85.9075 30.9959C86.8336 32.3887 86.456 34.2702 85.062 35.1975C83.6692 36.1248 81.7877 35.746 80.8604 34.3532C79.9331 32.9592 80.3106 31.0777 81.7046 30.1504C83.0987 29.2231 84.9802 29.6019 85.9075 30.9959Z" fill="#B1B9BC"/>
<path fill-rule="evenodd" clip-rule="evenodd" d="M81.7046 30.1504C81.5421 30.2591 81.3979 30.3825 81.2635 30.5132C82.5782 29.9585 84.1408 30.3935 84.9606 31.625C85.7804 32.8565 85.5763 34.4656 84.5574 35.4638C84.7309 35.3917 84.9007 35.3049 85.062 35.1974C86.456 34.2701 86.8335 32.3886 85.9074 30.9958C84.9801 29.6018 83.0986 29.2243 81.7046 30.1504Z" fill="#7C8585"/>
<path fill-rule="evenodd" clip-rule="evenodd" d="M83.3809 30.0221C82.858 30.0221 82.3509 30.176 81.9136 30.4656C80.6979 31.2768 80.3656 32.9274 81.1756 34.1431C81.668 34.8847 82.4939 35.3257 83.387 35.3257C83.9087 35.3257 84.4157 35.1718 84.8519 34.8822C85.442 34.49 85.8451 33.8902 85.9832 33.1962C86.1225 32.501 85.9832 31.7948 85.591 31.206C85.0974 30.4644 84.2715 30.0221 83.3809 30.0221ZM83.387 36.0831C82.241 36.0831 81.178 35.515 80.5452 34.5633C79.503 32.9994 79.9294 30.8772 81.4932 29.8351C82.0565 29.4612 82.7077 29.2645 83.3808 29.2645C84.5244 29.2645 85.5873 29.8326 86.2214 30.7856C86.726 31.5431 86.9056 32.4521 86.726 33.3464C86.5476 34.2383 86.0296 35.008 85.2721 35.5126C84.7113 35.8864 84.0589 36.0831 83.387 36.0831Z" fill="#C4CBCD"/>
<path fill-rule="evenodd" clip-rule="evenodd" d="M32.2468 52.5818C30.6414 52.1065 29.7263 50.4205 30.2004 48.8163C30.6756 47.2109 32.3617 46.2946 33.967 46.7699C35.5724 47.2452 36.4887 48.9312 36.0135 50.5366C35.5382 52.1407 33.8522 53.057 32.2468 52.5818Z" fill="#DBDBDB"/>
<path fill-rule="evenodd" clip-rule="evenodd" d="M35.3818 51.6678C35.0556 51.6813 34.7245 51.6556 34.3934 51.5579C32.7881 51.0826 31.873 49.3966 32.347 47.7912C32.4765 47.3575 32.6976 46.98 32.9787 46.6611C31.7215 46.7148 30.5779 47.5407 30.2004 48.8163C29.7263 50.4204 30.6414 52.1064 32.2468 52.5817C33.4173 52.9287 34.6268 52.5292 35.3818 51.6678Z" fill="#ACA6A2"/>
<path fill-rule="evenodd" clip-rule="evenodd" d="M33.1058 47.0227C31.9402 47.0227 30.8956 47.8046 30.5633 48.9225C30.1491 50.3239 30.953 51.8034 32.3544 52.22C33.735 52.6257 35.2463 51.7924 35.6507 50.4277C36.0648 49.0264 35.2609 47.5481 33.8596 47.1327C33.614 47.0594 33.3599 47.0227 33.1058 47.0227ZM33.1082 53.0875C32.7808 53.0875 32.4546 53.0399 32.1382 52.9458C30.3373 52.4107 29.3049 50.5096 29.8388 48.7075C30.264 47.2695 31.6067 46.2653 33.1058 46.2653C33.4332 46.2653 33.7594 46.3129 34.0759 46.407C35.8767 46.9397 36.9091 48.8419 36.3752 50.644C35.9512 52.0832 34.6073 53.0875 33.1082 53.0875Z" fill="white"/>
<path fill-rule="evenodd" clip-rule="evenodd" d="M76.6295 31.9489C75.7816 34.3899 73.1145 35.6813 70.6734 34.8334C68.2311 33.9855 66.9397 31.3184 67.7889 28.8761C68.6368 26.4351 71.3038 25.1437 73.7449 25.9916C76.1872 26.8395 77.4786 29.5066 76.6295 31.9489Z" fill="#B1B9BC"/>
<path fill-rule="evenodd" clip-rule="evenodd" d="M73.7449 25.9916C72.2189 25.4613 70.6062 25.7668 69.4028 26.6672C69.9294 26.6611 70.4657 26.7259 70.9923 26.9091C73.4334 27.757 74.7248 30.4241 73.8769 32.8664C73.5592 33.7815 72.985 34.5353 72.2629 35.0753C74.1786 35.0521 75.9648 33.8633 76.6295 31.9488C77.4786 29.5066 76.1872 26.8395 73.7449 25.9916Z" fill="#7C8585"/>
<path fill-rule="evenodd" clip-rule="evenodd" d="M72.2091 26.1088C70.3801 26.1088 68.7479 27.2707 68.1468 29.0007C67.3685 31.2414 68.5585 33.6983 70.7968 34.4754C71.2549 34.6354 71.729 34.7148 72.2091 34.7148C74.0381 34.7148 75.6716 33.553 76.2714 31.8242C77.0509 29.5847 75.8609 27.129 73.6202 26.3495C73.1633 26.1907 72.688 26.1088 72.2091 26.1088ZM72.2092 35.4723C71.6447 35.4723 71.0864 35.3782 70.5488 35.1913C67.9147 34.2774 66.5158 31.388 67.4309 28.7527C68.1359 26.7197 70.0577 25.3513 72.2092 25.3513C72.7724 25.3513 73.332 25.4466 73.8695 25.6323C76.5048 26.5499 77.9038 29.4393 76.9874 32.0734C76.2813 34.1064 74.3607 35.4723 72.2092 35.4723Z" fill="#C4CBCD"/>
<path fill-rule="evenodd" clip-rule="evenodd" d="M46.7246 92.1298C39.3697 92.1298 32.4314 90.3717 26.2859 87.2672C29.0667 87.7828 31.928 88.0662 34.8565 88.0662C41.041 88.0662 46.9421 86.8652 52.3435 84.6832C52.7686 86.8261 54.6636 88.445 56.9275 88.445C59.5041 88.445 61.5994 86.3497 61.5994 83.773C61.5994 82.5195 61.1034 81.3796 60.2983 80.539C61.3331 79.8658 62.3374 79.1548 63.3136 78.4034C63.9574 79.4565 65.1181 80.1603 66.44 80.1603C68.4596 80.1603 70.1016 78.5182 70.1016 76.4975C70.1016 75.316 69.5384 74.2629 68.6661 73.5921C74.4046 67.5787 78.5561 60.0331 80.4437 51.6348C81.2489 52.3508 82.2959 52.7527 83.3845 52.7527C84.4657 52.7527 85.5055 52.3581 86.3155 51.6422C87.1988 50.8578 87.7242 49.7765 87.795 48.5988C87.8659 47.421 87.4737 46.2848 86.6906 45.4015C85.8524 44.4558 84.6478 43.9121 83.3821 43.9121C82.7211 43.9121 82.0748 44.06 81.4871 44.3398C81.5494 43.3477 81.5812 42.3495 81.5812 41.3416C81.5812 39.2903 81.4492 37.2695 81.1927 35.2878C81.5959 35.6262 82.0736 35.8669 82.5879 35.9903C82.7309 36.8125 83.3063 37.4943 84.0907 37.7741V37.7753C84.3876 37.8804 84.6954 37.9329 85.0009 37.9329C85.6472 37.9329 86.2825 37.702 86.7846 37.2621C87.2684 36.8382 87.5861 36.2566 87.6802 35.6201C87.7584 35.0862 88.1896 34.6977 88.6881 34.6977C88.7834 34.6977 88.8812 34.7124 88.9801 34.7417L90.6686 35.2597C91.6228 38.9213 92.1298 42.7637 92.1298 46.7258C92.1298 71.8023 71.8011 92.1298 46.7246 92.1298ZM83.7547 25.741C83.387 25.741 83.0265 25.6237 82.7431 25.372C82.0186 24.7318 82.0357 23.6481 82.7064 23.0287L84.4328 21.4331C85.1096 22.4398 85.7474 23.4747 86.3436 24.5351C85.762 24.9371 85.1499 25.2926 84.5024 25.5797C84.2642 25.686 84.0076 25.741 83.7547 25.741ZM76.7358 18.2029C76.3582 18.2029 75.9697 18.0416 75.6643 17.7692C75.4761 17.6006 75.2501 17.4955 75.0143 17.4552C74.4022 16.4302 73.7523 15.4295 73.0656 14.457C74.01 14.038 74.5623 13.0264 74.3863 11.9915C74.2715 11.3147 73.8573 10.7258 73.2574 10.3886C72.9215 10.1992 72.7431 9.8608 72.7358 9.51749C74.4413 10.7111 76.0589 12.0184 77.5812 13.4283C77.6008 14.209 77.7083 14.9897 77.9087 15.7557L78.0321 16.231C78.1897 16.837 77.9991 17.4821 77.5287 17.9048C77.299 18.1113 77.0204 18.2029 76.7358 18.2029Z" fill="#DBDBDB"/>
<path fill-rule="evenodd" clip-rule="evenodd" d="M85.0009 37.9329C84.6954 37.9329 84.3876 37.8804 84.0907 37.7753V37.7741C83.3063 37.4943 82.7309 36.8126 82.5879 35.9904C82.8469 36.0514 83.1145 36.0832 83.3869 36.0832C84.0589 36.0832 84.7113 35.8865 85.2721 35.5127C86.0296 35.0081 86.5476 34.2384 86.726 33.3465C86.9056 32.4522 86.726 31.5432 86.2214 30.7857C85.5873 29.8327 84.5244 29.2646 83.3808 29.2646C82.7077 29.2646 82.0565 29.4613 81.4932 29.8352C81.0387 30.1382 80.6808 30.5316 80.4266 30.9763C79.3295 26.1418 77.4834 21.592 75.0143 17.4552C75.2501 17.4955 75.4761 17.6006 75.6643 17.7692C75.9697 18.0416 76.3582 18.2029 76.7357 18.2029C77.0204 18.2029 77.299 18.1113 77.5286 17.9048C77.999 17.4821 78.1896 16.837 78.032 16.231L77.9086 15.7557C77.7082 14.9897 77.6007 14.209 77.5812 13.4283C80.1615 15.818 82.4645 18.5059 84.4328 21.4332L82.7064 23.0288C82.0357 23.6482 82.0186 24.7319 82.7431 25.3721C83.0265 25.6238 83.3869 25.7411 83.7547 25.7411C84.0076 25.7411 84.2642 25.6861 84.5024 25.5798C85.1499 25.2927 85.762 24.9372 86.3436 24.5352C88.2177 27.8718 89.6814 31.4687 90.6686 35.2598L88.9801 34.7417C88.8812 34.7124 88.7834 34.6978 88.6881 34.6978C88.1897 34.6978 87.7584 35.0863 87.6802 35.6202C87.5861 36.2567 87.2684 36.8383 86.7846 37.2622C86.2825 37.702 85.6472 37.9329 85.0009 37.9329Z" fill="#9DA5A8"/>
<path fill-rule="evenodd" clip-rule="evenodd" d="M64.0858 4.90288C63.9722 4.81125 63.8573 4.71962 63.7425 4.62921C63.883 4.68663 64.021 4.74283 64.1603 4.80147L64.0858 4.90288Z" fill="#AEB4B5"/>
<path fill-rule="evenodd" clip-rule="evenodd" d="M73.0657 14.457C70.533 10.8663 67.5067 7.64939 64.0858 4.90289L64.1603 4.80148C67.2 6.06722 70.0736 7.65305 72.7358 9.51744C72.7431 9.86075 72.9215 10.1992 73.2575 10.3886C73.8574 10.7258 74.2715 11.3146 74.3864 11.9915C74.5623 13.0263 74.0101 14.0379 73.0657 14.457Z" fill="#9DA5A8"/>
<path fill-rule="evenodd" clip-rule="evenodd" d="M82.1151 51.768C81.5543 51.5615 81.0473 51.2182 80.6429 50.7625C80.6392 50.7588 80.6368 50.7552 80.6331 50.7527C81.0021 48.9506 81.2672 47.1119 81.4211 45.2402C81.8488 44.9689 82.3277 44.7893 82.8274 44.7124C83.0998 44.8956 83.3552 45.1143 83.5824 45.3721C85.0632 47.0423 84.9092 49.5957 83.2391 51.0765C82.897 51.3795 82.5158 51.6055 82.1151 51.768Z" fill="#9DA5A8"/>
<path fill-rule="evenodd" clip-rule="evenodd" d="M83.3845 51.9953C82.9472 51.9953 82.5183 51.9171 82.1151 51.768C82.5159 51.6055 82.8971 51.3795 83.2392 51.0765C84.9093 49.5958 85.0632 47.0423 83.5825 45.3722C83.3552 45.1144 83.0999 44.8957 82.8274 44.7124C83.0107 44.6843 83.1952 44.6697 83.3821 44.6697C84.4304 44.6697 85.4285 45.1193 86.1225 45.9036C86.7725 46.6367 87.0987 47.5762 87.0388 48.5536C86.9802 49.5298 86.544 50.4253 85.8122 51.0729C85.1414 51.6679 84.2801 51.9953 83.3845 51.9953Z" fill="#717877"/>
<path fill-rule="evenodd" clip-rule="evenodd" d="M83.3845 52.7528C82.2959 52.7528 81.2489 52.3508 80.4437 51.6349C80.5097 51.3417 80.5732 51.0472 80.6331 50.7528C80.6368 50.7552 80.6392 50.7589 80.6429 50.7626C81.0473 51.2183 81.5543 51.5616 82.1151 51.7681C82.5183 51.9171 82.9471 51.9953 83.3845 51.9953C84.28 51.9953 85.1414 51.6679 85.8121 51.0729C86.5439 50.4254 86.9801 49.5298 87.0387 48.5536C87.0986 47.5762 86.7724 46.6367 86.1224 45.9037C85.4285 45.1193 84.4303 44.6697 83.382 44.6697C83.1951 44.6697 83.0106 44.6843 82.8274 44.7124C82.3277 44.7894 81.8487 44.969 81.4211 45.2402C81.4456 44.9421 81.4676 44.6404 81.4871 44.3398C82.0748 44.06 82.7211 43.9122 83.382 43.9122C84.6478 43.9122 85.8524 44.4559 86.6905 45.4015C87.4737 46.2848 87.8659 47.4211 87.795 48.5988C87.7241 49.7766 87.1988 50.8579 86.3155 51.6422C85.5054 52.3582 84.4657 52.7528 83.3845 52.7528Z" fill="#AEB4B5"/>
<path fill-rule="evenodd" clip-rule="evenodd" d="M57.0998 86.0455C55.6263 86.0455 54.3349 85.3015 53.5652 84.1702C55.6777 83.2465 57.7094 82.1702 59.6447 80.957C60.3826 81.6692 60.842 82.6686 60.842 83.7731C60.842 83.789 60.842 83.8049 60.842 83.8207C60.1138 85.1439 58.7186 86.0455 57.0998 86.0455Z" fill="#D4D1C7"/>
<path fill-rule="evenodd" clip-rule="evenodd" d="M56.9275 87.6876C54.9776 87.6876 53.3563 86.2544 53.0607 84.3876C53.2293 84.3155 53.3979 84.2434 53.5653 84.1701C54.335 85.3015 55.6263 86.0455 57.0998 86.0455C58.7186 86.0455 60.1138 85.1439 60.842 83.8207C60.8163 85.9563 59.0692 87.6876 56.9275 87.6876Z" fill="#ACA6A2"/>
<path fill-rule="evenodd" clip-rule="evenodd" d="M56.9275 88.445C54.6636 88.445 52.7686 86.8262 52.3435 84.6833C52.5829 84.5868 52.8224 84.4878 53.0606 84.3876C53.3563 86.2544 54.9776 87.6876 56.9275 87.6876C59.0692 87.6876 60.8163 85.9563 60.842 83.8207C60.842 83.8048 60.842 83.789 60.842 83.7731C60.842 82.6686 60.3826 81.6692 59.6447 80.9569C59.8634 80.8189 60.082 80.6796 60.2983 80.5391C61.1034 81.3797 61.5995 82.5196 61.5995 83.7731C61.5995 86.3497 59.5042 88.445 56.9275 88.445Z" fill="#F3F2E8"/>
<path fill-rule="evenodd" clip-rule="evenodd" d="M65.1144 77.7608C64.8212 77.7608 64.5378 77.7217 64.269 77.6496C65.6215 76.5525 66.9129 75.3796 68.1346 74.1407C68.225 74.2055 68.3118 74.2764 68.3948 74.3521C68.3961 74.3936 68.3973 74.4352 68.3973 74.478C68.3973 76.291 66.9275 77.7608 65.1144 77.7608Z" fill="#9DA5A8"/>
<path fill-rule="evenodd" clip-rule="evenodd" d="M66.4401 79.4028C65.3613 79.4028 64.4169 78.8103 63.916 77.9331C64.0345 77.839 64.1505 77.7449 64.269 77.6496C64.5378 77.7217 64.8213 77.7608 65.1145 77.7608C66.9276 77.7608 68.3973 76.291 68.3973 74.4779C68.3973 74.4352 68.3961 74.3936 68.3949 74.3521C68.9777 74.8836 69.3442 75.6484 69.3442 76.4975C69.3442 78.0992 68.0418 79.4028 66.4401 79.4028Z" fill="#717877"/>
<path fill-rule="evenodd" clip-rule="evenodd" d="M66.44 80.1604C65.1181 80.1604 63.9574 79.4567 63.3136 78.4035C63.5152 78.2484 63.7167 78.092 63.9159 77.9332C64.4168 78.8104 65.3612 79.4029 66.44 79.4029C68.0417 79.4029 69.3441 78.0993 69.3441 76.4976C69.3441 75.6485 68.9776 74.8837 68.3948 74.3522C68.3118 74.2765 68.225 74.2056 68.1346 74.1408C68.3142 73.9588 68.4901 73.778 68.6661 73.5923C69.5384 74.263 70.1016 75.3162 70.1016 76.4976C70.1016 78.5184 68.4596 80.1604 66.44 80.1604Z" fill="#AEB4B5"/>
<path fill-rule="evenodd" clip-rule="evenodd" d="M83.387 35.3258C82.4939 35.3258 81.668 34.8847 81.1756 34.1431C81.0974 34.0258 81.029 33.9036 80.9728 33.779C80.9007 33.3416 80.8237 32.9079 80.7407 32.4742C80.8005 31.6886 81.2086 30.936 81.9135 30.4656C82.0174 30.3972 82.1249 30.3361 82.2361 30.2824C82.3045 30.2787 82.3717 30.2763 82.4389 30.2763C83.4175 30.2763 84.3778 30.7491 84.9606 31.6251C85.5837 32.5609 85.6154 33.7167 85.1463 34.655C85.0547 34.7369 84.9557 34.8126 84.8519 34.8823C84.4157 35.1718 83.9087 35.3258 83.387 35.3258Z" fill="#9DA5A8"/>
<path fill-rule="evenodd" clip-rule="evenodd" d="M85.1463 34.6549C85.6154 33.7166 85.5837 32.5608 84.9606 31.625C84.3778 30.749 83.4175 30.2762 82.4389 30.2762C82.3717 30.2762 82.3045 30.2786 82.2361 30.2823C82.5928 30.1112 82.9825 30.022 83.3808 30.022C84.2715 30.022 85.0974 30.4643 85.591 31.2059C85.9832 31.7948 86.1224 32.501 85.9832 33.1961C85.8695 33.7679 85.5763 34.275 85.1463 34.6549Z" fill="#717877"/>
<path fill-rule="evenodd" clip-rule="evenodd" d="M83.387 36.0831C83.1145 36.0831 82.847 36.0514 82.5879 35.9903C82.0736 35.8669 81.5959 35.6262 81.1927 35.2878C81.1267 34.782 81.0534 34.2798 80.9728 33.7789C81.029 33.9035 81.0974 34.0257 81.1756 34.143C81.668 34.8846 82.4939 35.3256 83.387 35.3256C83.9087 35.3256 84.4157 35.1717 84.8518 34.8821C84.9557 34.8125 85.0547 34.7368 85.1463 34.6549C85.5763 34.2749 85.8696 33.7679 85.9832 33.1961C86.1225 32.5009 85.9832 31.7948 85.591 31.2059C85.0974 30.4643 84.2715 30.022 83.3809 30.022C82.9826 30.022 82.5928 30.1112 82.2361 30.2822C82.1249 30.336 82.0174 30.3971 81.9135 30.4655C81.2086 30.9359 80.8005 31.6885 80.7407 32.4741C80.6441 31.9719 80.5391 31.4722 80.4267 30.9762C80.6808 30.5315 81.0388 30.1381 81.4933 29.8351C82.0565 29.4612 82.7077 29.2645 83.3809 29.2645C84.5244 29.2645 85.5873 29.8326 86.2214 30.7856C86.726 31.5431 86.9056 32.4521 86.726 33.3464C86.5476 34.2383 86.0296 35.008 85.2721 35.5126C84.7113 35.8864 84.0589 36.0831 83.387 36.0831Z" fill="#AEB4B5"/>
<path fill-rule="evenodd" clip-rule="evenodd" d="M46.7247 0C45.5078 0 44.3141 0.0916314 43.1205 0.182041C58.4303 8.51072 69.0265 26.1919 69.0265 46.7234C69.0265 67.2586 58.4303 84.9398 43.1205 93.2685C44.3141 93.3589 45.5078 93.4505 46.7247 93.4505C72.5305 93.4505 93.4493 72.5305 93.4493 46.7234C93.4493 20.92 72.5305 0 46.7247 0Z" fill="#635D5D"/>
</svg>
