<svg width="94" height="94" viewBox="0 0 94 94" fill="none" xmlns="http://www.w3.org/2000/svg">
<path fill-rule="evenodd" clip-rule="evenodd" d="M93.4493 46.7247C93.4493 72.5293 72.5293 93.4481 46.7247 93.4481C20.9188 93.4481 0 72.5293 0 46.7247C0 20.9188 20.9188 0 46.7247 0C72.5293 0 93.4493 20.9188 93.4493 46.7247Z" fill="white"/>
<path fill-rule="evenodd" clip-rule="evenodd" d="M47.5139 75.4407C48.203 75.8402 48.6269 76.5757 48.6269 77.3723C48.6269 78.3362 49.2463 79.1927 50.1627 79.4944C51.1303 79.8109 52.1908 79.4566 52.7735 78.6221C53.5359 77.5274 53.4785 76.0589 52.6306 75.0265L52.1749 74.473C51.6801 73.8707 50.9666 73.492 50.1908 73.4187C49.283 73.3344 48.5646 72.616 48.4791 71.7094C48.3752 70.5964 49.25 69.6349 50.3667 69.6349C51.2378 69.6349 52.0319 70.1334 52.4107 70.919L53.2122 72.5818C53.6349 73.4578 54.5707 73.9648 55.5347 73.8402C56.5817 73.7033 57.3954 72.8579 57.4895 71.806L57.5518 71.1218C57.5982 70.6062 58.0821 70.2433 58.5903 70.3447C59.9819 70.6233 61.404 70.0418 62.2006 68.8664C62.9177 67.8121 63.0277 66.4584 62.4938 65.3014C62.0503 64.3411 61.211 63.6202 60.1957 63.3295L58.6538 62.8872C57.8499 62.6563 57.2268 62.0197 57.0118 61.2122C56.6624 59.8963 55.4712 58.9812 54.1114 58.9812H53.7509C53.2232 58.9812 52.776 58.5939 52.7015 58.0723C52.5414 56.9556 51.7717 56.0222 50.7063 55.652C49.7094 55.3074 48.6049 55.5909 47.8963 56.3716C47.1743 57.1682 47.0093 58.3227 47.4797 59.2891L47.5347 59.4027C47.8511 60.0552 48.3838 60.5768 49.0411 60.8811C49.7632 61.2158 50.2128 61.9513 50.1798 62.7467C50.137 63.801 49.2696 64.6331 48.2152 64.6331C47.1291 64.6331 46.1993 63.8511 46.0124 62.7821L45.9611 62.4828C45.7876 61.4858 45.283 60.5744 44.5292 59.8988C43.7607 59.2097 42.6196 59.1401 41.7753 59.7326C40.9323 60.3239 40.6061 61.4162 40.9885 62.3728L41.1413 62.754C41.3111 63.1792 41.3881 63.6361 41.3673 64.093C41.3074 65.4162 40.4949 66.5891 39.2769 67.1108L39.0704 67.1987C38.1858 67.5787 37.1632 67.4358 36.4155 66.8285C35.4638 66.0552 35.2561 64.6868 35.9329 63.6642C36.2567 63.178 36.4913 62.6392 36.6281 62.0723L36.9348 60.7968C37.195 59.7118 36.7368 58.5805 35.7937 57.9831C35.173 57.5897 34.4143 57.4773 33.7057 57.6727L32.7649 57.9318C32.1528 58.1004 31.4955 57.9525 31.0154 57.5359C30.33 56.9409 30.1602 55.9452 30.611 55.1572C31.1033 54.2946 31.1547 53.2488 30.749 52.3422L30.6208 52.0564C29.8046 50.2298 30.4912 48.0808 32.2151 47.0667C33.0789 46.5585 34.1431 46.5316 35.0313 46.9946C35.9904 47.4943 36.5915 48.4864 36.5915 49.5689C36.5915 51.1046 37.2011 52.5756 38.2872 53.6617L39.7155 55.0912C40.6147 55.9879 41.8755 56.4241 43.1364 56.2714C44.5597 56.0991 45.7912 55.2011 46.3923 53.8988L46.6196 53.4064C47.0154 52.5487 46.5121 51.5457 45.5884 51.349C44.721 51.1645 44.2665 50.2054 44.6721 49.4174C44.9604 48.8578 45.6007 48.5719 46.2103 48.732L47.1058 48.9678C48.0625 49.2194 49.0826 49.0044 49.856 48.3887C50.8016 47.6373 51.2305 46.4094 50.9605 45.2329C50.6013 43.6666 49.3026 42.4888 47.7082 42.2848C46.7369 42.1602 45.7534 42.3801 44.9287 42.9067L42.8871 44.2103C42.4363 44.4974 41.8523 44.4681 41.4333 44.137C40.9055 43.7203 40.7992 42.9616 41.1938 42.4167L41.432 42.0869C41.8755 41.4735 42.016 40.6904 41.8144 39.9598C41.5628 39.0471 40.7723 38.3874 39.8291 38.3007C39.1021 38.2347 38.3862 38.5218 37.9061 39.0728L37.4393 39.6079C36.8859 40.2457 35.8816 40.1919 35.399 39.4992C35.1681 39.1681 35.1046 38.749 35.2268 38.3642L35.5896 37.2231C35.8205 36.4986 35.6116 35.7069 35.0533 35.1913C34.3483 34.5401 33.2756 34.4949 32.5194 35.0862L32.209 35.3281C31.5578 35.7961 30.4668 35.6262 29.8266 35.1424C29.0899 34.5853 28.8846 33.5664 29.3465 32.7673C29.7203 32.1223 30.4497 31.768 31.1876 31.873L32.264 32.027C33.7289 32.2359 35.2243 32.0013 36.5548 31.3526C37.2842 30.997 37.746 30.2566 37.746 29.4466C37.746 28.7747 37.4271 28.1418 36.8871 27.7411L36.1773 27.2169C35.2732 26.5486 34.7808 25.4588 34.8761 24.3385C34.9506 23.4625 34.6647 22.5938 34.0856 21.9329L33.7973 21.603C32.6012 20.2358 30.8724 19.4515 29.0557 19.4515C27.3917 19.4515 25.7948 20.11 24.6146 21.2817L23.8645 22.0269C23.2536 22.6341 22.4448 23.0007 21.5859 23.0618L21.4087 23.074C19.8889 23.1815 18.6305 24.2994 18.3458 25.7973C18.1442 26.8541 17.3293 27.6885 16.2762 27.9133C15.0984 28.1662 14.1418 29.0215 13.7606 30.165C13.3427 31.4185 13.6873 32.7991 14.6451 33.7093C15.3134 34.3446 15.7618 35.1766 15.9231 36.0844L16.2395 37.8694C16.5291 39.4955 15.8547 41.1424 14.5071 42.0991C13.366 42.9091 11.9023 43.1082 10.5865 42.6342C8.96399 42.049 7.72269 40.7173 7.25598 39.0557L7.03729 38.2774C6.63044 36.8297 7.38671 35.3074 8.78684 34.7576C9.53455 34.4631 10.1295 33.8755 10.4313 33.1314L13.2755 26.1222C13.4771 25.625 13.4332 25.0618 13.157 24.6024C12.6341 23.7313 11.4686 23.5077 10.6598 24.1247L7.6054 26.4558C6.42275 27.3574 5.86196 28.8565 6.16374 30.3141C6.33722 31.1559 5.99269 32.0196 5.28774 32.5108C4.44351 33.0984 3.30117 33.0056 2.56446 32.2884L2.35309 32.0844C0.833234 36.6904 0 41.6079 0 46.7246C0 53.3917 1.40624 59.729 3.92304 65.4675C5.99147 66.8982 8.30424 67.944 10.7636 68.495C12.132 68.8029 13.2633 69.7583 13.796 71.0546L15.1106 74.2543C15.6176 75.4895 16.7637 76.346 18.0929 76.4828C19.906 76.6685 21.5004 77.762 22.3263 79.3869C22.672 80.065 23.4417 80.412 24.1785 80.2202C24.9054 80.032 25.4075 79.3686 25.3917 78.6172L25.3355 75.9428C25.3281 75.5751 25.5102 75.2293 25.8193 75.0289C26.3141 74.7052 26.9775 74.8469 27.2976 75.3442L28.5462 77.2867C28.8578 77.7718 29.4198 78.0344 29.9916 77.9611C30.6562 77.8781 31.1828 77.3625 31.2829 76.7003L31.6702 74.1236C31.7032 73.9037 31.7631 73.6887 31.8474 73.4822C32.4974 71.9098 34.137 70.9862 35.8181 71.2452C37.0875 71.4407 38.0282 72.528 38.0404 73.8121C38.0429 74.1212 37.9904 74.4278 37.8865 74.7174L36.9959 77.2085C36.3605 78.9886 36.8773 80.9764 38.2995 82.2214C39.4051 83.189 40.958 83.4627 42.3288 82.93C43.812 82.3533 44.8028 80.9422 44.8444 79.3515L44.8713 78.2959C44.8945 77.3943 45.1975 76.5231 45.7375 75.8011C46.1529 75.2489 46.9165 75.0937 47.5139 75.4407Z" fill="#EFEFEF"/>
<path fill-rule="evenodd" clip-rule="evenodd" d="M79.4994 38.1162L78.6954 36.6782C78.324 36.0147 77.8072 35.4442 77.1841 35.008C75.9514 34.1467 74.3998 33.8779 72.9508 34.2762C72.1261 34.5022 71.2489 34.4497 70.4975 34.0392L70.2544 33.906C69.2757 33.3697 68.6136 32.3959 68.4767 31.2866L68.4572 31.1326C68.3558 30.3055 68.5048 29.4503 68.9556 28.749C69.7425 27.5285 71.1377 26.9542 72.4804 27.1851C74.2935 27.4955 75.8927 28.5572 76.8836 30.1064C77.2831 30.7307 77.9685 31.1119 78.7089 31.1424L80.3179 31.2059C80.8738 31.2267 81.4053 30.9689 81.7242 30.5132C82.1713 29.8754 83.0437 29.6629 83.7535 30.0831C84.2642 30.3849 84.5171 30.9836 84.4817 31.5761C84.4328 32.4106 84.0602 33.1974 83.4383 33.7655L83.3638 33.8339C82.9447 34.2188 82.6405 34.7295 82.5721 35.2951C82.4352 36.4143 83.0938 37.4173 84.0907 37.7728V37.7741C85.0156 38.1027 86.0455 37.9085 86.7847 37.2609C87.2685 36.837 87.5861 36.2554 87.6802 35.6189C87.7731 34.9836 88.3668 34.5535 88.9801 34.7405L92.1298 35.7056C91.1023 31.4576 89.4957 27.4393 87.3968 23.7337C86.511 24.4668 85.5544 25.1118 84.5024 25.5785C83.9172 25.8388 83.222 25.7948 82.7431 25.3708C82.0186 24.7306 82.0357 23.647 82.7065 23.0275L85.4163 20.5242C83.2123 17.2767 80.605 14.3274 77.6753 11.7337C77.4945 13.0666 77.5641 14.4325 77.9086 15.7544L78.032 16.2297C78.1896 16.8357 77.999 17.4808 77.5287 17.9035C76.9948 18.3837 76.1994 18.2468 75.6643 17.7679C75.1609 17.3183 74.3912 17.3219 73.8915 17.7887C73.1915 18.4411 72.9789 19.4625 73.3564 20.3409L73.8708 21.5321C74.1298 22.132 74.01 22.8565 73.5128 23.2804C72.8616 23.8363 71.9294 23.73 71.415 23.1167C70.3118 21.8033 69.7608 20.1124 69.8781 18.4008L69.883 18.3299C69.9184 17.8265 69.7009 17.3378 69.3038 17.0251C68.9214 16.7245 68.4168 16.6231 67.9477 16.7563C66.2629 17.2291 64.4523 16.7441 63.2293 15.4905L62.5207 14.7648C62.2042 14.4398 61.718 14.3519 61.3075 14.5449C60.7992 14.7831 60.5647 15.3769 60.7711 15.8998L61.922 18.8003C62.1175 19.2939 62.1407 19.8388 61.9843 20.3458C61.6777 21.3513 60.7369 22.0281 59.6862 22.0013L58.4034 21.9658C57.4663 21.9414 56.6343 21.3586 56.2897 20.4863C56.0613 19.9084 55.6764 19.4063 55.178 19.0348L53.4822 17.7703C53.0533 17.4515 52.7393 17.0043 52.5842 16.4924C52.3508 15.7215 51.7583 15.1118 50.9959 14.8528L50.6453 14.7343C49.2818 14.2725 48.6501 12.7037 49.3135 11.427C49.6214 10.8344 49.5102 10.1112 49.0387 9.63836L49.0179 9.61759C48.4938 9.09223 47.6801 8.99083 47.0448 9.37079L46.9824 9.40867C46.5035 9.69456 46.2005 10.2016 46.1773 10.7587C46.1431 11.5467 45.3868 12.099 44.6208 11.9157L44.4876 11.8839C42.1687 11.3244 40.3813 9.47464 39.9024 7.13865L39.8767 7.01037C39.6361 5.83871 38.6538 4.96638 37.4626 4.86742C37.3343 4.85642 37.2084 4.84542 37.0899 4.83565C36.523 4.78678 35.9671 4.97493 35.5481 5.35978L35.3941 5.50028C33.4882 7.25105 31.3452 8.73182 29.0349 9.89737L28.9188 9.95479C25.3452 11.7557 22.0465 14.022 19.0984 16.6964C17.862 17.8168 16.8406 18.7404 16.8406 18.7404C16.3446 19.1876 16.165 19.9145 16.4509 20.573C16.7087 21.1656 17.333 21.5174 17.9793 21.5174H18.0721C18.4863 21.5174 18.8846 21.355 19.1827 21.0666L22.4032 17.9377L23.4014 16.9799C24.4081 16.011 25.8327 15.6164 27.1962 15.9194L27.3171 15.9475C28.8834 16.2969 30.5059 16.3299 32.0856 16.0452L32.1369 16.0367C32.8602 15.9059 33.3843 15.2767 33.3831 14.5425V14.5302C33.3831 14.0868 33.1388 13.7019 32.7857 13.4331C32.1883 12.9786 32.0856 12.1136 32.5707 11.5321L34.1712 9.61025C34.4461 9.27916 34.8126 9.03603 35.2243 8.91019L35.2536 8.90042C36.3153 8.57543 37.4418 9.16432 37.7778 10.2224L37.7949 10.2761C38.242 11.6775 39.4186 12.7111 40.8554 12.9725C41.0508 13.0079 41.2427 13.0434 41.4247 13.0764C42.0197 13.1851 42.5255 13.6249 42.6452 14.2175C42.8297 15.135 42.1419 15.9426 41.2585 15.9573L40.4277 15.9695C39.074 15.9915 37.8816 16.865 37.454 18.1491L37.4406 18.1882C37.2011 18.909 37.3892 19.6946 37.9219 20.2224C38.2787 20.5767 38.4864 21.0532 38.5035 21.5565C38.5719 23.482 39.1278 25.3586 40.4021 26.804L41.4687 28.0147C42.2848 28.9396 42.8016 30.0929 42.9507 31.3208C43.0056 31.7765 42.9336 32.2395 42.7662 32.6671L42.699 32.8406C42.1675 34.1992 42.5915 35.7447 43.7424 36.6415L43.779 36.6696C44.4864 37.2255 45.3673 37.4808 46.2518 37.3868C46.9592 37.311 47.8242 37.2206 48.5585 37.1424C49.5359 37.0398 50.3887 36.446 50.831 35.5688L50.8505 35.5273C51.3832 34.4631 51.2317 33.1925 50.4693 32.2884L50.3924 32.198C49.6153 31.2768 49.3343 30.0367 49.6361 28.8724L49.7106 28.5865C49.9256 27.7557 50.6599 27.1619 51.5188 27.1253L51.5616 27.1228C52.3093 27.0911 53.0289 27.4173 53.498 28.0013L53.6337 28.1687C54.1786 28.8479 54.407 29.6824 54.2934 30.5071L54.2873 30.5486C54.1651 31.4405 54.4522 32.3397 55.0729 32.9921L56.1566 34.1332C57.0546 35.0789 58.2739 35.6507 59.575 35.7386L59.6496 35.7447C60.8542 35.8254 62.0466 35.4735 63.013 34.7515C63.1572 34.6427 63.3026 34.5352 63.4431 34.4314C64.0833 33.9585 64.9568 33.961 65.5946 34.4387L65.6227 34.4595C66.1713 34.87 66.4425 35.5529 66.3264 36.2273L66.1823 37.063C66.0552 37.7948 66.2653 38.567 66.8066 39.0752C67.6838 39.9011 68.9911 39.8633 69.8121 39.0899L69.9184 38.9909C70.4266 38.5108 71.1377 38.2603 71.8206 38.4082C72.638 38.5853 73.2379 39.2108 73.4077 39.9781C73.7266 41.4161 74.9569 42.468 76.4303 42.4717L76.8262 42.4729C77.4786 42.4754 78.1322 42.3055 78.6588 41.9219C79.8915 41.0215 80.2116 39.3868 79.4994 38.1162Z" fill="#EFEFEF"/>
<path fill-rule="evenodd" clip-rule="evenodd" d="M73.4663 8.41907C70.82 6.5669 67.9782 4.97496 64.969 3.69823L64.0649 4.93097C63.1401 6.19182 62.9043 7.83141 63.4357 9.3024C63.9623 10.7587 65.1731 11.862 66.6722 12.2493L66.7601 12.2725C68.0027 12.595 69.1584 13.1925 70.1432 14.0184C70.9031 14.6573 71.9428 14.8504 72.8823 14.5278C73.9367 14.1637 74.5745 13.0911 74.3863 11.9903C74.2715 11.3134 73.8573 10.7245 73.2574 10.3873C72.6258 10.0318 72.5537 9.14846 73.1206 8.69519L73.4663 8.41907Z" fill="#B1B9BC"/>
<path fill-rule="evenodd" clip-rule="evenodd" d="M14.259 48.6709C18.11 46.1492 23.2755 47.2268 25.7972 51.0778C28.3189 54.9287 27.2414 60.0943 23.3904 62.616C19.5394 65.1377 14.3739 64.0601 11.8522 60.2091C9.33047 56.3582 10.4081 51.1926 14.259 48.6709Z" fill="#DBDBDB"/>
<path fill-rule="evenodd" clip-rule="evenodd" d="M15.1326 59.8573C12.6109 56.0063 13.6885 50.8396 17.5394 48.3179C18.1931 47.8903 18.8858 47.5738 19.5968 47.349C17.7825 47.1792 15.9011 47.5946 14.259 48.671C10.4081 51.1926 9.33047 56.3582 11.8522 60.2092C13.945 63.4065 17.8607 64.6844 21.3342 63.5849C18.8956 63.3564 16.5791 62.065 15.1326 59.8573Z" fill="#ACA6A2"/>
<path fill-rule="evenodd" clip-rule="evenodd" d="M18.8162 47.6862C17.2707 47.6862 15.7667 48.1358 14.4655 48.9874C10.7954 51.3906 9.76544 56.3314 12.1686 60.0015C13.6445 62.2544 16.1357 63.5996 18.8321 63.5996C20.3776 63.5996 21.8828 63.15 23.1839 62.2984C26.8529 59.8952 27.8828 54.9544 25.4808 51.2843C24.005 49.0314 21.515 47.6862 18.8162 47.6862ZM18.8321 64.3569C15.8791 64.3569 13.1522 62.8847 11.5358 60.4156C8.90292 56.3972 10.0318 50.9861 14.0514 48.3532C15.4747 47.421 17.1229 46.9287 18.8162 46.9287C21.7704 46.9287 24.4974 48.4009 26.1137 50.87C28.7454 54.8884 27.6177 60.3007 23.5981 62.9324C22.1748 63.8646 20.5254 64.3569 18.8321 64.3569Z" fill="white"/>
<path fill-rule="evenodd" clip-rule="evenodd" d="M45.0423 80.2789C43.5847 79.3503 43.1571 77.4151 44.0856 75.9575C45.0154 74.5012 46.9506 74.0736 48.407 75.0021C49.8645 75.9319 50.2921 77.8659 49.3636 79.3234C48.4338 80.781 46.4986 81.2086 45.0423 80.2789Z" fill="#DBDBDB"/>
<path fill-rule="evenodd" clip-rule="evenodd" d="M49.3636 79.3234C49.944 78.4132 49.994 77.3161 49.5958 76.3949C49.5176 76.7382 49.3929 77.0766 49.1926 77.3906C48.2628 78.8481 46.3276 79.2758 44.8712 78.346C44.3239 77.9978 43.9219 77.5079 43.6825 76.9544C43.4015 78.2043 43.8987 79.5507 45.0423 80.2788C46.4986 81.2086 48.4339 80.781 49.3636 79.3234Z" fill="#ACA6A2"/>
<path fill-rule="evenodd" clip-rule="evenodd" d="M46.7283 74.8896C45.7815 74.8896 44.9128 75.3661 44.4058 76.1615C44.0099 76.7809 43.8804 77.5176 44.038 78.2348C44.1969 78.9519 44.6257 79.564 45.2463 79.9599C45.6886 80.2421 46.1993 80.3912 46.721 80.3912C47.6666 80.3912 48.5353 79.9159 49.0435 79.1193C49.4382 78.4999 49.5689 77.7644 49.4101 77.0472C49.2512 76.3288 48.8224 75.7167 48.203 75.3209C47.7607 75.0387 47.2512 74.8896 46.7283 74.8896ZM46.7209 81.1488C46.0539 81.1488 45.4027 80.9582 44.837 80.599C44.0465 80.0944 43.5004 79.3125 43.2988 78.3986C43.096 77.4835 43.2622 76.544 43.7655 75.7535C44.4143 74.7382 45.5212 74.131 46.7283 74.131C47.3966 74.131 48.0453 74.3228 48.611 74.682C49.4015 75.1866 49.9476 75.9685 50.1504 76.8824C50.3532 77.7987 50.1858 78.737 49.6825 79.5275C49.0337 80.5428 47.9268 81.1488 46.7209 81.1488Z" fill="white"/>
<path fill-rule="evenodd" clip-rule="evenodd" d="M86.0638 51.3563C84.3937 52.8358 81.8402 52.6819 80.3594 51.013C78.8787 49.3416 79.0326 46.7882 80.7028 45.3074C82.3729 43.8278 84.9276 43.9818 86.4071 45.6519C87.8879 47.3221 87.7339 49.8755 86.0638 51.3563Z" fill="#B1B9BC"/>
<path fill-rule="evenodd" clip-rule="evenodd" d="M86.4071 45.652C85.3625 44.473 83.7865 44.0662 82.3607 44.4388C82.8103 44.6636 83.2281 44.9715 83.5824 45.371C85.0632 47.0411 84.9093 49.5946 83.2391 51.0753C82.748 51.5103 82.1774 51.7876 81.5824 51.944C83.0143 52.6575 84.7932 52.4816 86.0638 51.3563C87.7339 49.8756 87.8879 47.3221 86.4071 45.652Z" fill="#7C8585"/>
<path fill-rule="evenodd" clip-rule="evenodd" d="M83.3821 44.6685C82.4865 44.6685 81.6252 44.9971 80.9557 45.5909C80.2226 46.2409 79.7877 47.1352 79.7278 48.1126C79.6692 49.0876 79.9929 50.0295 80.6429 50.7614C81.3369 51.5445 82.3375 51.9941 83.3845 51.9941C84.2801 51.9941 85.1414 51.6667 85.8121 51.0717C86.5452 50.4242 86.9801 49.5286 87.0388 48.5524C87.0986 47.575 86.7724 46.6355 86.1225 45.9025C85.4285 45.1181 84.4303 44.6685 83.3821 44.6685ZM83.3845 52.7516C82.1212 52.7516 80.9141 52.2104 80.076 51.2647C79.2916 50.3802 78.9007 49.2439 78.9715 48.0662C79.0436 46.8872 79.569 45.8072 80.4523 45.024C81.2611 44.3056 82.302 43.911 83.3821 43.911C84.6478 43.911 85.8524 44.4547 86.6918 45.4003C87.4737 46.2836 87.8659 47.4199 87.795 48.5976C87.7242 49.7754 87.1988 50.8567 86.3155 51.641C85.5055 52.357 84.4657 52.7516 83.3845 52.7516Z" fill="#C4CBCD"/>
<path fill-rule="evenodd" clip-rule="evenodd" d="M61.2207 83.7705C61.2207 86.1419 59.2989 88.065 56.9275 88.065C54.5561 88.065 52.6343 86.1419 52.6343 83.7705C52.6343 81.3991 54.5561 79.4773 56.9275 79.4773C59.2989 79.4773 61.2207 81.3991 61.2207 83.7705Z" fill="#B1B9BC"/>
<path fill-rule="evenodd" clip-rule="evenodd" d="M57.0998 86.0443C54.9568 86.0443 53.1951 84.4683 52.8737 82.4145C52.7296 82.8433 52.6343 83.2942 52.6343 83.7706C52.6343 86.1421 54.5561 88.0651 56.9275 88.0651C59.2989 88.0651 61.2207 86.1421 61.2207 83.7706C61.2207 83.5434 61.1878 83.3247 61.1535 83.1072C60.5842 84.8091 58.9947 86.0443 57.0998 86.0443Z" fill="#7C8585"/>
<path fill-rule="evenodd" clip-rule="evenodd" d="M56.9275 79.8561C54.7686 79.8561 53.0118 81.6117 53.0118 83.7718C53.0118 85.9294 54.7686 87.6863 56.9275 87.6863C59.0851 87.6863 60.842 85.9294 60.842 83.7718C60.842 81.6117 59.0851 79.8561 56.9275 79.8561ZM56.9275 88.4437C54.352 88.4437 52.2543 86.3484 52.2543 83.7717C52.2543 81.1951 54.352 79.0973 56.9275 79.0973C59.5041 79.0973 61.5994 81.1951 61.5994 83.7717C61.5994 86.3484 59.5041 88.4437 56.9275 88.4437Z" fill="#C4CBCD"/>
<path fill-rule="evenodd" clip-rule="evenodd" d="M38.666 12.3996C38.666 14.2127 37.1962 15.6824 35.3819 15.6824C33.5689 15.6824 32.0991 14.2127 32.0991 12.3996C32.0991 10.5865 33.5689 9.11551 35.3819 9.11551C37.1962 9.11551 38.666 10.5865 38.666 12.3996Z" fill="#DBDBDB"/>
<path fill-rule="evenodd" clip-rule="evenodd" d="M35.7607 11.1363C36.9971 11.1363 38.0612 11.8278 38.6208 12.8382C38.6403 12.6928 38.666 12.5499 38.666 12.3996C38.666 10.5865 37.195 9.11551 35.3819 9.11551C33.5689 9.11551 32.0991 10.5865 32.0991 12.3996C32.0991 12.9762 32.2604 13.5101 32.5218 13.9805C32.7381 12.3776 34.0979 11.1363 35.7607 11.1363Z" fill="#ACA6A2"/>
<path fill-rule="evenodd" clip-rule="evenodd" d="M35.3819 9.49548C33.7814 9.49548 32.4778 10.7979 32.4778 12.3984C32.4778 14.0001 33.7814 15.3037 35.3819 15.3037C36.9836 15.3037 38.2872 14.0001 38.2872 12.3984C38.2872 10.7979 36.9836 9.49548 35.3819 9.49548ZM35.3819 16.0611C33.3624 16.0611 31.7203 14.4191 31.7203 12.3983C31.7203 10.38 33.3624 8.73795 35.3819 8.73795C37.4027 8.73795 39.0447 10.38 39.0447 12.3983C39.0447 14.4191 37.4027 16.0611 35.3819 16.0611Z" fill="white"/>
<path fill-rule="evenodd" clip-rule="evenodd" d="M16.3153 37.8963C16.3153 40.5915 14.1308 42.7759 11.4368 42.7759C8.74162 42.7759 6.55713 40.5915 6.55713 37.8963C6.55713 35.2023 8.74162 33.0178 11.4368 33.0178C14.1308 33.0178 16.3153 35.2023 16.3153 37.8963Z" fill="#DBDBDB"/>
<path fill-rule="evenodd" clip-rule="evenodd" d="M8.87723 37.9757C8.87723 35.636 10.5266 33.6849 12.7245 33.2121C12.3116 33.0985 11.8852 33.0178 11.4368 33.0178C8.74162 33.0178 6.55713 35.2023 6.55713 37.8963C6.55713 40.5915 8.74162 42.7759 11.4368 42.7759C11.7899 42.7759 12.1344 42.7332 12.4667 42.6611C10.402 42.093 8.87723 40.2225 8.87723 37.9757Z" fill="#ACA6A2"/>
<path fill-rule="evenodd" clip-rule="evenodd" d="M11.4368 33.3966C8.95422 33.3966 6.93588 35.4149 6.93588 37.8963C6.93588 40.3789 8.95422 42.3972 11.4368 42.3972C13.917 42.3972 15.9353 40.3789 15.9353 37.8963C15.9353 35.4149 13.917 33.3966 11.4368 33.3966ZM11.4368 43.1547C8.53761 43.1547 6.17841 40.7955 6.17841 37.8963C6.17841 34.9983 8.53761 32.6391 11.4368 32.6391C14.336 32.6391 16.6928 34.9983 16.6928 37.8963C16.6928 40.7955 14.336 43.1547 11.4368 43.1547Z" fill="white"/>
<path fill-rule="evenodd" clip-rule="evenodd" d="M69.7229 76.4975C69.7229 78.3105 68.2531 79.7803 66.44 79.7803C64.627 79.7803 63.1572 78.3105 63.1572 76.4975C63.1572 74.6832 64.627 73.2134 66.44 73.2134C68.2531 73.2134 69.7229 74.6832 69.7229 76.4975Z" fill="#B1B9BC"/>
<path fill-rule="evenodd" clip-rule="evenodd" d="M68.3313 73.8195C68.3741 74.0321 68.3973 74.252 68.3973 74.4768C68.3973 76.2898 66.9275 77.7596 65.1144 77.7596C64.4083 77.7596 63.7583 77.5324 63.2232 77.1536C63.5274 78.6515 64.8518 79.7804 66.44 79.7804C68.2531 79.7804 69.7229 78.3106 69.7229 76.4975C69.7229 75.3894 69.1707 74.4145 68.3313 73.8195Z" fill="#7C8585"/>
<path fill-rule="evenodd" clip-rule="evenodd" d="M66.44 73.5934C64.8395 73.5934 63.5359 74.8958 63.5359 76.4963C63.5359 78.098 64.8395 79.4016 66.44 79.4016C68.0418 79.4016 69.3441 78.098 69.3441 76.4963C69.3441 74.8958 68.0418 73.5934 66.44 73.5934ZM66.4401 80.1591C64.4205 80.1591 62.7785 78.517 62.7785 76.4963C62.7785 74.4779 64.4205 72.8347 66.4401 72.8347C68.4596 72.8347 70.1017 74.4779 70.1017 76.4963C70.1017 78.517 68.4596 80.1591 66.4401 80.1591Z" fill="#C4CBCD"/>
<path fill-rule="evenodd" clip-rule="evenodd" d="M85.9074 30.9945C86.8335 32.3873 86.456 34.2688 85.062 35.1961C83.6692 36.1234 81.7877 35.7447 80.8604 34.3519C79.933 32.9579 80.3106 31.0764 81.7046 30.1491C83.0986 29.2218 84.9801 29.6005 85.9074 30.9945Z" fill="#B1B9BC"/>
<path fill-rule="evenodd" clip-rule="evenodd" d="M81.7046 30.1492C81.5421 30.2579 81.3979 30.3813 81.2635 30.5121C82.5782 29.9574 84.1408 30.3923 84.9606 31.6239C85.7804 32.8554 85.5763 34.4644 84.5574 35.4626C84.7309 35.3905 84.9007 35.3038 85.062 35.1963C86.456 34.2689 86.8335 32.3874 85.9074 30.9947C84.9801 29.6006 83.0986 29.2231 81.7046 30.1492Z" fill="#7C8585"/>
<path fill-rule="evenodd" clip-rule="evenodd" d="M83.3808 30.0209C82.8579 30.0209 82.3509 30.1749 81.9135 30.4644C80.6979 31.2757 80.3656 32.9262 81.1756 34.1419C81.668 34.8835 82.4939 35.3245 83.387 35.3245C83.9086 35.3245 84.4157 35.1706 84.8518 34.881C85.4419 34.4889 85.8451 33.889 85.9832 33.195C86.1225 32.4999 85.9832 31.7937 85.5922 31.2048C85.0974 30.4632 84.2715 30.0209 83.3808 30.0209ZM83.3869 36.0821C82.2409 36.0821 81.1792 35.514 80.5451 34.5622C79.503 32.9984 79.9294 30.8762 81.4932 29.834C82.0564 29.4602 82.7076 29.2635 83.3808 29.2635C84.5244 29.2635 85.5873 29.8316 86.2214 30.7846C86.7272 31.542 86.9056 32.451 86.7272 33.3453C86.5476 34.2372 86.0296 35.0069 85.2721 35.5115C84.7113 35.8854 84.0589 36.0821 83.3869 36.0821Z" fill="#C4CBCD"/>
<path fill-rule="evenodd" clip-rule="evenodd" d="M32.2469 52.5806C30.6415 52.1053 29.7264 50.4193 30.2005 48.8151C30.6757 47.2097 32.3618 46.2934 33.9671 46.7687C35.5725 47.2439 36.4888 48.93 36.0136 50.5353C35.5383 52.1395 33.8523 53.0558 32.2469 52.5806Z" fill="#D4D1C7"/>
<path fill-rule="evenodd" clip-rule="evenodd" d="M35.3819 51.6667C35.0557 51.6801 34.7246 51.6544 34.3935 51.5567C32.7881 51.0814 31.873 49.3954 32.3471 47.79C32.4766 47.3563 32.6989 46.9788 32.9787 46.6599C31.7215 46.7137 30.578 47.5396 30.2004 48.8151C29.7264 50.4193 30.6427 52.1053 32.2469 52.5805C33.4173 52.9275 34.6268 52.528 35.3819 51.6667Z" fill="#ACA6A2"/>
<path fill-rule="evenodd" clip-rule="evenodd" d="M33.107 47.0215C31.9403 47.0215 30.8957 47.8034 30.5646 48.9213C30.1492 50.3227 30.9531 51.8022 32.3544 52.2189C33.735 52.6245 35.2463 51.7912 35.6507 50.4265C36.0649 49.0252 35.261 47.5469 33.8596 47.1315C33.6141 47.0582 33.3599 47.0215 33.107 47.0215ZM33.1082 53.0863C32.7808 53.0863 32.4558 53.0386 32.1382 52.9445C30.3373 52.4094 29.3049 50.5084 29.8388 48.7063C30.264 47.2683 31.6067 46.264 33.107 46.264C33.4332 46.264 33.7594 46.3116 34.0759 46.4057C35.8767 46.9384 36.9091 48.8407 36.3752 50.6427C35.9512 52.082 34.6073 53.0863 33.1082 53.0863Z" fill="white"/>
<path fill-rule="evenodd" clip-rule="evenodd" d="M76.6307 31.9476C75.7816 34.3887 73.1145 35.6801 70.6734 34.8322C68.2324 33.9843 66.9398 31.3172 67.7889 28.8749C68.6368 26.4339 71.3039 25.1425 73.7449 25.9904C76.1872 26.8383 77.4786 29.5054 76.6307 31.9476Z" fill="#B1B9BC"/>
<path fill-rule="evenodd" clip-rule="evenodd" d="M73.7449 25.9903C72.2189 25.46 70.6062 25.7655 69.4028 26.6659C69.9306 26.6598 70.4657 26.7245 70.9923 26.9078C73.4334 27.7557 74.7248 30.4228 73.8769 32.8651C73.5592 33.7802 72.985 34.534 72.2629 35.074C74.1798 35.0508 75.9648 33.862 76.6307 31.9475C77.4786 29.5052 76.1872 26.8382 73.7449 25.9903Z" fill="#7C8585"/>
<path fill-rule="evenodd" clip-rule="evenodd" d="M72.2091 26.1076C70.3802 26.1076 68.7479 27.2695 68.1468 28.9995C67.3686 31.2401 68.5585 33.6971 70.7968 34.4741C71.2549 34.6342 71.729 34.7136 72.2091 34.7136C74.0381 34.7136 75.6716 33.5517 76.2715 31.8229C77.0509 29.5835 75.8609 27.1277 73.6215 26.3483C73.1633 26.1894 72.6881 26.1076 72.2091 26.1076ZM72.2091 35.4711C71.6447 35.4711 71.0863 35.3771 70.5488 35.1901C67.9147 34.2763 66.5158 31.3868 67.4309 28.7515C68.137 26.7185 70.0576 25.3502 72.2091 25.3502C72.7724 25.3502 73.3319 25.4455 73.8695 25.6312C76.5048 26.5487 77.9037 29.4381 76.9874 32.0722C76.2812 34.1052 74.3606 35.4711 72.2091 35.4711Z" fill="#C4CBCD"/>
<path fill-rule="evenodd" clip-rule="evenodd" d="M46.7247 92.1286C39.3709 92.1286 32.4314 90.3705 26.286 87.266C29.0667 87.7816 31.928 88.065 34.8578 88.065C41.0411 88.065 46.9421 86.864 52.3435 84.682C52.7687 86.8249 54.6636 88.4438 56.9275 88.4438C59.5042 88.4438 61.5995 86.3484 61.5995 83.7718C61.5995 82.5183 61.1047 81.3784 60.2983 80.5378C61.3331 79.8646 62.3374 79.1523 63.3136 78.4022C63.9575 79.4553 65.1181 80.1591 66.4401 80.1591C68.4596 80.1591 70.1016 78.517 70.1016 76.4963C70.1016 75.3148 69.5384 74.2617 68.6661 73.5909C74.4047 67.5775 78.5562 60.0319 80.4438 51.6336C81.2489 52.3496 82.2959 52.7515 83.3845 52.7515C84.4658 52.7515 85.5055 52.3569 86.3155 51.6409C87.1988 50.8566 87.7242 49.7753 87.7951 48.5976C87.8659 47.4198 87.4737 46.2836 86.6918 45.4002C85.8525 44.4546 84.6478 43.9109 83.3821 43.9109C82.7211 43.9109 82.0748 44.0588 81.4871 44.3385C81.5507 43.3465 81.5824 42.3483 81.5824 41.3404C81.5824 39.289 81.4493 37.2683 81.1927 35.2866C81.5959 35.625 82.0736 35.8657 82.5879 35.9891C82.7309 36.8126 83.3063 37.4931 84.0907 37.7728V37.7741C84.3876 37.8791 84.6955 37.9317 85.0009 37.9317C85.6472 37.9317 86.2825 37.7008 86.7847 37.2609C87.2685 36.837 87.5861 36.2554 87.6802 35.6189C87.7584 35.085 88.1897 34.6965 88.6882 34.6965C88.7834 34.6965 88.8812 34.7111 88.9801 34.7405L90.6686 35.2585C91.6228 38.9201 92.1298 42.7625 92.1298 46.7246C92.1298 71.8011 71.8011 92.1286 46.7247 92.1286ZM83.7547 25.7399C83.387 25.7399 83.0265 25.6226 82.7431 25.3709C82.0186 24.7307 82.0357 23.647 82.7064 23.0276L84.4328 21.432C85.1096 22.4387 85.7474 23.4735 86.3436 24.534C85.762 24.936 85.1499 25.2915 84.5024 25.5786C84.2642 25.6849 84.0076 25.7399 83.7547 25.7399ZM76.7358 18.2017C76.3583 18.2017 75.9697 18.0404 75.6643 17.7679C75.4762 17.5993 75.2501 17.4943 75.0143 17.4539C74.4022 16.4289 73.7523 15.4283 73.0656 14.4558C74.0101 14.0367 74.5623 13.0251 74.3864 11.9903C74.2715 11.3134 73.8573 10.7245 73.2575 10.3873C72.9215 10.198 72.7431 9.85953 72.7358 9.51622C74.4413 10.7099 76.0589 12.0159 77.5812 13.427C77.6008 14.2077 77.7083 14.9884 77.9087 15.7545L78.0321 16.2297C78.1897 16.8357 77.9991 17.4808 77.5287 17.9035C77.299 18.11 77.0204 18.2017 76.7358 18.2017Z" fill="#DBDBDB"/>
<path fill-rule="evenodd" clip-rule="evenodd" d="M85.0009 37.9317C84.6954 37.9317 84.3876 37.8792 84.0907 37.7741V37.7729C83.3063 37.4931 82.7309 36.8126 82.5879 35.9891C82.8469 36.0502 83.1145 36.082 83.3869 36.082C84.0589 36.082 84.7113 35.8853 85.2721 35.5114C86.0296 35.0069 86.5476 34.2372 86.7272 33.3453C86.9056 32.451 86.7272 31.542 86.2214 30.7845C85.5873 29.8315 84.5244 29.2634 83.3808 29.2634C82.7077 29.2634 82.0565 29.4601 81.4932 29.834C81.04 30.137 80.6808 30.5304 80.4266 30.9751C79.3307 26.1406 77.4834 21.5908 75.0143 17.454C75.2501 17.4943 75.4761 17.5993 75.6643 17.7679C75.9697 18.0404 76.3582 18.2017 76.7357 18.2017C77.0204 18.2017 77.299 18.11 77.5286 17.9036C77.999 17.4808 78.1896 16.8357 78.032 16.2298L77.9086 15.7545C77.7082 14.9885 77.6007 14.2078 77.5812 13.4271C80.1615 15.8168 82.4645 18.5047 84.4328 21.432L82.7064 23.0276C82.0357 23.647 82.0186 24.7307 82.7431 25.3709C83.0265 25.6226 83.3869 25.7399 83.7547 25.7399C84.0076 25.7399 84.2642 25.6849 84.5024 25.5786C85.1499 25.2915 85.762 24.936 86.3436 24.534C88.2177 27.8706 89.6814 31.4674 90.6686 35.2585L88.9801 34.7405C88.8812 34.7112 88.7834 34.6965 88.6881 34.6965C88.1897 34.6965 87.7584 35.085 87.6802 35.619C87.5861 36.2555 87.2684 36.837 86.7846 37.261C86.2825 37.7008 85.6472 37.9317 85.0009 37.9317Z" fill="#9DA5A8"/>
<path fill-rule="evenodd" clip-rule="evenodd" d="M64.0858 4.90167C63.9721 4.81004 63.8573 4.71841 63.7424 4.628C63.8829 4.68542 64.021 4.74162 64.1603 4.80027L64.0858 4.90167Z" fill="#AEB4B5"/>
<path fill-rule="evenodd" clip-rule="evenodd" d="M73.0656 14.4557C70.5329 10.865 67.5066 7.64812 64.0857 4.90162L64.1602 4.80022C67.1999 6.06595 70.0735 7.65178 72.7357 9.51618C72.743 9.85949 72.9214 10.1979 73.2574 10.3873C73.8573 10.7245 74.2714 11.3134 74.3863 11.9902C74.5622 13.025 74.01 14.0367 73.0656 14.4557Z" fill="#9DA5A8"/>
<path fill-rule="evenodd" clip-rule="evenodd" d="M82.1151 51.7668C81.5555 51.5604 81.0473 51.217 80.6429 50.7613C80.6392 50.7577 80.6368 50.754 80.6331 50.7516C81.0021 48.9495 81.2672 47.1095 81.4211 45.239C81.8488 44.9678 82.3277 44.7882 82.8274 44.7112C83.0998 44.8945 83.3552 45.1132 83.5824 45.371C85.0632 47.0411 84.9092 49.5946 83.2391 51.0753C82.897 51.3783 82.5171 51.6043 82.1151 51.7668Z" fill="#9DA5A8"/>
<path fill-rule="evenodd" clip-rule="evenodd" d="M83.3845 51.9941C82.9472 51.9941 82.5183 51.9159 82.1151 51.7669C82.5171 51.6044 82.8971 51.3784 83.2392 51.0754C84.9093 49.5946 85.0632 47.0411 83.5825 45.371C83.3552 45.1132 83.0999 44.8945 82.8274 44.7113C83.0107 44.6832 83.1952 44.6685 83.3821 44.6685C84.4304 44.6685 85.4285 45.1181 86.1225 45.9025C86.7725 46.6355 87.0987 47.575 87.0388 48.5524C86.9802 49.5286 86.5452 50.4242 85.8122 51.0717C85.1414 51.6667 84.2801 51.9941 83.3845 51.9941Z" fill="#717877"/>
<path fill-rule="evenodd" clip-rule="evenodd" d="M83.3845 52.7516C82.2959 52.7516 81.2489 52.3496 80.4438 51.6337C80.5097 51.3405 80.5733 51.0472 80.6331 50.7516C80.6368 50.754 80.6392 50.7577 80.6429 50.7614C81.0473 51.2171 81.5555 51.5604 82.1151 51.7669C82.5183 51.9159 82.9471 51.9941 83.3845 51.9941C84.2801 51.9941 85.1414 51.6667 85.8121 51.0717C86.5452 50.4242 86.9801 49.5286 87.0388 48.5524C87.0986 47.575 86.7724 46.6355 86.1225 45.9025C85.4285 45.1181 84.4303 44.6685 83.3821 44.6685C83.1951 44.6685 83.0107 44.6831 82.8274 44.7112C82.3277 44.7882 81.8488 44.9678 81.4212 45.239C81.4468 44.9409 81.4688 44.6392 81.4871 44.3386C82.0748 44.0588 82.7211 43.911 83.3821 43.911C84.6478 43.911 85.8524 44.4547 86.6918 45.4003C87.4737 46.2836 87.8659 47.4199 87.795 48.5976C87.7242 49.7754 87.1988 50.8567 86.3155 51.641C85.5055 52.357 84.4658 52.7516 83.3845 52.7516Z" fill="#AEB4B5"/>
<path fill-rule="evenodd" clip-rule="evenodd" d="M57.0997 86.0442C55.6275 86.0442 54.3349 85.3002 53.5652 84.1689C55.6776 83.2452 57.7094 82.1688 59.6447 80.9557C60.3826 81.6679 60.842 82.6673 60.842 83.7718C60.842 83.7877 60.842 83.8036 60.842 83.8194C60.1138 85.1426 58.7186 86.0442 57.0997 86.0442Z" fill="#9DA5A8"/>
<path fill-rule="evenodd" clip-rule="evenodd" d="M56.9275 87.6863C54.9776 87.6863 53.3563 86.2532 53.0607 84.3864C53.2293 84.3143 53.3979 84.2422 53.5653 84.1689C54.335 85.3002 55.6276 86.0443 57.0998 86.0443C58.7186 86.0443 60.1138 85.1426 60.842 83.8195C60.8163 85.9551 59.0692 87.6863 56.9275 87.6863Z" fill="#717877"/>
<path fill-rule="evenodd" clip-rule="evenodd" d="M56.9275 88.4438C54.6636 88.4438 52.7686 86.825 52.3435 84.6821C52.5829 84.5855 52.8236 84.4866 53.0606 84.3864C53.3563 86.2532 54.9776 87.6864 56.9275 87.6864C59.0692 87.6864 60.8163 85.9551 60.842 83.8195C60.842 83.8036 60.842 83.7877 60.842 83.7719C60.842 82.6674 60.3826 81.668 59.6447 80.9557C59.8634 80.8177 60.082 80.6784 60.2983 80.5379C61.1047 81.3785 61.5995 82.5183 61.5995 83.7719C61.5995 86.3485 59.5042 88.4438 56.9275 88.4438Z" fill="#AEB4B5"/>
<path fill-rule="evenodd" clip-rule="evenodd" d="M65.1144 77.7595C64.8212 77.7595 64.539 77.7204 64.269 77.6484C65.6215 76.5512 66.9129 75.3783 68.1346 74.1395C68.225 74.2055 68.3118 74.2751 68.3948 74.3509C68.3961 74.3924 68.3973 74.4339 68.3973 74.4767C68.3973 76.2898 66.9275 77.7595 65.1144 77.7595Z" fill="#9DA5A8"/>
<path fill-rule="evenodd" clip-rule="evenodd" d="M66.4401 79.4016C65.3613 79.4016 64.4168 78.809 63.9159 77.9318C64.0344 77.8377 64.1505 77.7436 64.269 77.6483C64.539 77.7204 64.8212 77.7595 65.1145 77.7595C66.9275 77.7595 68.3973 76.2898 68.3973 74.4767C68.3973 74.4339 68.3961 74.3924 68.3949 74.3508C68.9776 74.8823 69.3442 75.6471 69.3442 76.4962C69.3442 78.0979 68.0418 79.4016 66.4401 79.4016Z" fill="#717877"/>
<path fill-rule="evenodd" clip-rule="evenodd" d="M66.4401 80.159C65.1181 80.159 63.9575 79.4553 63.3136 78.4022C63.5152 78.247 63.7168 78.0894 63.9159 77.9318C64.4168 78.809 65.3613 79.4016 66.4401 79.4016C68.0418 79.4016 69.3442 78.098 69.3442 76.4962C69.3442 75.6471 68.9776 74.8823 68.3949 74.3508C68.3118 74.2751 68.225 74.2055 68.1346 74.1395C68.3142 73.9574 68.4902 73.7766 68.6661 73.5909C69.5384 74.2617 70.1016 75.3148 70.1016 76.4962C70.1016 78.517 68.4596 80.159 66.4401 80.159Z" fill="#AEB4B5"/>
<path fill-rule="evenodd" clip-rule="evenodd" d="M83.387 35.3245C82.4939 35.3245 81.668 34.8834 81.1756 34.1418C81.0974 34.0245 81.029 33.9024 80.9728 33.7778C80.9007 33.3404 80.8237 32.9066 80.7407 32.4729C80.8017 31.6873 81.2086 30.9347 81.9135 30.4644C82.0174 30.3959 82.1261 30.3349 82.2361 30.2811C82.3045 30.2774 82.3717 30.275 82.4389 30.275C83.4187 30.275 84.3778 30.7478 84.9606 31.6238C85.5837 32.5597 85.6154 33.7154 85.1463 34.655C85.0547 34.7356 84.9557 34.8114 84.8519 34.881C84.4157 35.1706 83.9087 35.3245 83.387 35.3245Z" fill="#9DA5A8"/>
<path fill-rule="evenodd" clip-rule="evenodd" d="M85.1463 34.655C85.6154 33.7155 85.5837 32.5597 84.9606 31.6239C84.3778 30.7479 83.4187 30.2751 82.4389 30.2751C82.3717 30.2751 82.3045 30.2775 82.2361 30.2812C82.5928 30.1101 82.9825 30.0209 83.3808 30.0209C84.2715 30.0209 85.0974 30.4632 85.5922 31.2048C85.9832 31.7937 86.1224 32.4999 85.9832 33.195C85.8695 33.7668 85.5763 34.2739 85.1463 34.655Z" fill="#717877"/>
<path fill-rule="evenodd" clip-rule="evenodd" d="M83.387 36.0821C83.1145 36.0821 82.847 36.0503 82.5879 35.9892C82.0736 35.8658 81.5959 35.6251 81.1927 35.2867C81.128 34.7809 81.0534 34.2788 80.9728 33.7778C81.029 33.9025 81.0974 34.0246 81.1756 34.1419C81.668 34.8835 82.4939 35.3246 83.387 35.3246C83.9087 35.3246 84.4157 35.1706 84.8518 34.8811C84.9557 34.8114 85.0547 34.7357 85.1463 34.6551C85.5763 34.2739 85.8696 33.7668 85.9832 33.1951C86.1225 32.4999 85.9832 31.7937 85.5922 31.2048C85.0974 30.4632 84.2715 30.021 83.3809 30.021C82.9826 30.021 82.5928 30.1101 82.2361 30.2812C82.1261 30.3349 82.0174 30.396 81.9135 30.4645C81.2086 30.9348 80.8017 31.6874 80.7407 32.473C80.6441 31.9721 80.5391 31.4712 80.4267 30.9751C80.6808 30.5304 81.04 30.137 81.4933 29.834C82.0565 29.4602 82.7077 29.2635 83.3809 29.2635C84.5244 29.2635 85.5873 29.8316 86.2214 30.7846C86.7272 31.542 86.9056 32.451 86.7272 33.3453C86.5476 34.2372 86.0296 35.0069 85.2721 35.5115C84.7113 35.8854 84.0589 36.0821 83.387 36.0821Z" fill="#AEB4B5"/>
<path fill-rule="evenodd" clip-rule="evenodd" d="M46.6578 0C72.4624 0 93.3824 20.9188 93.3824 46.7247C93.3824 72.5293 72.4624 93.4493 46.6578 93.4493V0Z" fill="#635D5D"/>
</svg>
