<svg width="94" height="94" viewBox="0 0 94 94" fill="none" xmlns="http://www.w3.org/2000/svg">
<path fill-rule="evenodd" clip-rule="evenodd" d="M93.3168 46.6584C93.3168 72.4264 72.4264 93.3155 46.6584 93.3155C20.8892 93.3155 0 72.4264 0 46.6584C0 20.8892 20.8892 0 46.6584 0C72.4264 0 93.3168 20.8892 93.3168 46.6584Z" fill="white"/>
<path fill-rule="evenodd" clip-rule="evenodd" d="M47.4465 75.3337C48.1346 75.7326 48.5567 76.4671 48.5567 77.2625C48.5567 78.2251 49.1765 79.0804 50.0915 79.3817C51.0578 79.6977 52.1167 79.3439 52.6975 78.5106C53.46 77.4175 53.4026 75.951 52.5559 74.9201L52.1009 74.3674C51.6068 73.766 50.8931 73.3878 50.1196 73.3146C49.2131 73.2304 48.4957 72.513 48.4103 71.6077C48.3054 70.4963 49.1802 69.5362 50.2952 69.5362C51.1651 69.5362 51.9581 70.0339 52.3363 70.8184L53.1367 72.4788C53.5576 73.3536 54.4921 73.8599 55.4559 73.7355C56.5015 73.5988 57.314 72.7546 57.408 71.7041L57.469 71.0209C57.5165 70.5061 57.9997 70.1437 58.5072 70.245C59.8968 70.5231 61.3169 69.9424 62.1124 68.7688C62.8273 67.7159 62.9383 66.3641 62.4052 65.2088C61.9623 64.2498 61.1241 63.53 60.1091 63.2396L58.5706 62.798C57.7679 62.5674 57.1457 61.9318 56.9309 61.1253C56.5808 59.8114 55.3925 58.8976 54.0346 58.8976H53.6747C53.1477 58.8976 52.7011 58.5108 52.6267 57.9899C52.4669 56.8748 51.6983 55.9427 50.6344 55.573C49.6389 55.229 48.5348 55.512 47.8284 56.2916C47.1073 57.0871 46.9426 58.24 47.4111 59.205L47.4673 59.3185C47.7832 59.97 48.3152 60.4909 48.9715 60.7947C49.6926 61.129 50.1415 61.8635 50.1086 62.6577C50.0659 63.7106 49.1997 64.5414 48.1468 64.5414C47.061 64.5414 46.1338 63.7606 45.9471 62.6931L45.8959 62.3942C45.7214 61.3986 45.2188 60.4885 44.4648 59.8138C43.6986 59.1257 42.5591 59.0562 41.7149 59.6479C40.8743 60.2384 40.5485 61.3291 40.9304 62.2844L41.0817 62.665C41.2525 63.0896 41.3293 63.5459 41.3086 64.0022C41.2476 65.3234 40.4375 66.4946 39.2211 67.0156L39.015 67.1034C38.1305 67.4829 37.1093 67.3401 36.3639 66.7338C35.4135 65.9615 35.2048 64.5951 35.882 63.5739C36.204 63.0884 36.4395 62.5503 36.5749 61.9842L36.8824 60.7105C37.1422 59.6272 36.6847 58.4974 35.7429 57.9008C35.1219 57.508 34.3655 57.3958 33.6579 57.591L32.7185 57.8496C32.1072 58.018 31.4509 57.8703 30.9714 57.4543C30.287 56.8602 30.1174 55.8659 30.5663 55.0789C31.0592 54.2176 31.1105 53.1733 30.7054 52.268L30.5773 51.9825C29.7623 50.1586 30.4468 48.0126 32.1694 47C33.032 46.4925 34.0946 46.4656 34.9816 46.928C35.9393 47.427 36.5395 48.4176 36.5395 49.4986C36.5395 51.0321 37.1483 52.501 38.2317 53.5856L39.6591 55.0131C40.5558 55.9086 41.8161 56.3441 43.0752 56.1916C44.4965 56.0196 45.7263 55.1229 46.3265 53.8223L46.5535 53.3307C46.9475 52.4742 46.4461 51.4726 45.5238 51.2761C44.6575 51.0919 44.2037 50.1342 44.6087 49.3473C44.8967 48.7885 45.5347 48.503 46.1448 48.6629L47.039 48.8983C47.9943 49.1497 49.013 48.9349 49.7853 48.32C50.7296 47.5697 51.1578 46.3436 50.8882 45.1687C50.5295 43.6047 49.2326 42.4286 47.6405 42.2248C46.6706 42.1004 45.6885 42.32 44.8649 42.8458L42.8251 44.1476C42.3749 44.4343 41.7929 44.405 41.3745 44.0744C40.8474 43.6583 40.7413 42.9007 41.1354 42.3566L41.372 42.0272C41.8161 41.4147 41.9564 40.6327 41.7551 39.9031C41.5026 38.9918 40.7132 38.333 39.7726 38.2463C39.0455 38.1805 38.3318 38.4672 37.8523 39.0174L37.3862 39.5518C36.8336 40.1886 35.8295 40.1349 35.3476 39.4432C35.1182 39.1126 35.0548 38.6941 35.1768 38.3098L35.5391 37.1703C35.7697 36.4468 35.5611 35.6562 35.0035 35.1414C34.2996 34.4911 33.2284 34.446 32.4732 35.0365L32.1633 35.278C31.5131 35.7453 30.4236 35.5757 29.7843 35.0926C29.0486 34.5363 28.8437 33.5188 29.3048 32.7209C29.6782 32.0767 30.4065 31.7229 31.1434 31.8278L32.2182 31.9816C33.681 32.1902 35.1743 31.9559 36.5029 31.3081C37.2313 30.9531 37.6925 30.2137 37.6925 29.4049C37.6925 28.7339 37.374 28.1019 36.8348 27.7017L36.126 27.1783C35.2231 26.511 34.7315 25.4227 34.8266 24.304C34.8998 23.4292 34.6156 22.5618 34.0373 21.9018L33.7494 21.5724C32.5537 20.2072 30.8286 19.4239 29.0145 19.4239C27.3528 19.4239 25.7582 20.0815 24.5797 21.2515L23.8306 21.9957C23.2206 22.6021 22.413 22.9681 21.5553 23.0291L21.3784 23.0413C19.8607 23.1486 18.6041 24.2649 18.3198 25.7607C18.1185 26.816 17.3047 27.6493 16.2531 27.8738C15.077 28.1263 14.1217 28.9803 13.7411 30.1222C13.3238 31.374 13.6679 32.7526 14.6244 33.6615C15.2917 34.2959 15.7395 35.1268 15.9005 36.0332L16.2165 37.8157C16.5056 39.4395 15.8322 41.0841 14.4865 42.0394C13.347 42.8483 11.8854 43.0471 10.5715 42.5738C8.95005 41.9894 7.71174 40.6595 7.24569 39.0003L7.02731 38.2232C6.62104 36.7774 7.37623 35.2573 8.77437 34.7083C9.52102 34.4143 10.114 33.8274 10.4165 33.0844L13.2567 26.0852C13.458 25.5887 13.4141 25.0262 13.1384 24.5675C12.615 23.6976 11.4523 23.4744 10.6447 24.0905L7.59461 26.4183C6.41364 27.3186 5.85365 28.8156 6.15499 30.2711C6.32823 31.1117 5.98419 31.9742 5.28024 32.4647C4.43721 33.0515 3.29649 32.9588 2.56082 32.2426L2.34976 32.0389C0.832053 36.6384 0 41.5489 0 46.6584C0 53.316 1.40424 59.6442 3.91748 65.3747C5.98297 66.8033 8.29246 67.8476 10.7484 68.3979C12.1136 68.7053 13.2445 69.6594 13.7764 70.9538L15.088 74.149C15.5955 75.3825 16.7399 76.2377 18.0673 76.3744C19.8778 76.5598 21.4699 77.6517 22.2946 79.2743C22.6399 79.9515 23.4085 80.2979 24.1442 80.1064C24.8701 79.9185 25.3715 79.256 25.3556 78.5057L25.2995 75.8351C25.2922 75.4679 25.474 75.1226 25.7826 74.9225C26.2768 74.5992 26.9392 74.7408 27.2589 75.2373L28.5057 77.1771C28.8168 77.6615 29.378 77.9238 29.949 77.8506C30.6115 77.7676 31.1385 77.2528 31.2386 76.5915L31.6241 74.0185C31.657 73.7989 31.7168 73.5842 31.8022 73.378C32.45 71.8078 34.0885 70.8855 35.7661 71.1441C37.0349 71.3393 37.9743 72.4252 37.9853 73.7074C37.9889 74.0161 37.9365 74.3223 37.8328 74.6114L36.9434 77.099C36.309 78.8766 36.8238 80.8616 38.2451 82.1048C39.3492 83.071 40.8999 83.3443 42.2688 82.8124C43.7486 82.2365 44.7393 80.8274 44.7795 79.239L44.8076 78.1849C44.8296 77.2845 45.1321 76.4146 45.6726 75.6936C46.0874 75.1421 46.8499 74.9872 47.4465 75.3337Z" fill="#EFEFEF"/>
<path fill-rule="evenodd" clip-rule="evenodd" d="M79.3866 38.0621L78.5838 36.6262C78.2117 35.9637 77.6957 35.394 77.0734 34.9584C75.8437 34.0983 74.293 33.8299 72.8473 34.2276C72.0226 34.4533 71.1478 34.4009 70.3975 33.9909L70.1547 33.858C69.1775 33.3224 68.5162 32.35 68.3796 31.2422L68.3601 31.0885C68.2588 30.2626 68.4076 29.4086 68.8578 28.7083C69.6423 27.4895 71.0368 26.9161 72.3776 27.1466C74.1881 27.4565 75.7851 28.5167 76.7745 30.0637C77.1735 30.6871 77.8579 31.0678 78.596 31.0983L80.204 31.1617C80.7579 31.1825 81.2898 30.925 81.6082 30.47C82.0536 29.8331 82.9259 29.6208 83.6347 30.0405C84.1434 30.3419 84.3972 30.9397 84.3618 31.5314C84.313 32.3647 83.9409 33.1504 83.3199 33.7177L83.2455 33.786C82.8258 34.1703 82.5233 34.6803 82.4537 35.2451C82.3183 36.3627 82.9759 37.3643 83.9714 37.7193V37.7205C84.895 38.0487 85.9235 37.8547 86.6616 37.2081C87.1447 36.7848 87.4619 36.2041 87.5558 35.5684C87.6486 34.934 88.2403 34.5046 88.8539 34.6912L91.9991 35.6551C90.9731 31.413 89.3688 27.4004 87.2728 23.7001C86.3883 24.4321 85.433 25.0763 84.3814 25.5423C83.7982 25.8022 83.104 25.7583 82.6257 25.3349C81.9023 24.6956 81.9194 23.6135 82.5891 22.9949L85.2939 20.4951C83.0942 17.2523 80.4907 14.3072 77.5651 11.7171C77.3845 13.0481 77.4529 14.4121 77.7981 15.7322L77.9214 16.2067C78.0787 16.8119 77.8872 17.456 77.4187 17.8782C76.8856 18.3576 76.0913 18.221 75.557 17.7427C75.0543 17.2938 74.2857 17.2974 73.7855 17.7635C73.0876 18.415 72.8754 19.4349 73.2523 20.3121L73.766 21.5016C74.0246 22.1007 73.9038 22.8241 73.4085 23.2475C72.7582 23.8026 71.8274 23.6964 71.3137 23.084C70.2121 21.7725 69.6618 20.084 69.779 18.3747L69.7838 18.304C69.8192 17.8013 69.602 17.3133 69.2055 17.001C68.8237 16.7008 68.3198 16.5996 67.8513 16.7326C66.1689 17.2047 64.3608 16.7204 63.1396 15.4686L62.432 14.7439C62.116 14.4194 61.6292 14.3316 61.2205 14.5243C60.713 14.7622 60.4775 15.3552 60.6849 15.8773L61.8342 18.7737C62.0294 19.2665 62.0514 19.8107 61.8964 20.317C61.5902 21.3211 60.6508 21.9969 59.6016 21.9701L58.3205 21.9347C57.3836 21.9103 56.554 21.3284 56.2099 20.4573C55.9818 19.8802 55.5975 19.3788 55.0997 19.0079L53.4063 17.7452C52.9781 17.4268 52.6645 16.9802 52.5096 16.469C52.2753 15.6992 51.6849 15.0904 50.9223 14.8318L50.5722 14.7134C49.2119 14.2523 48.5811 12.6858 49.2436 11.4108C49.551 10.8191 49.44 10.0969 48.9691 9.62474L48.9471 9.604C48.425 9.07939 47.6124 8.97813 46.978 9.35756L46.9158 9.39538C46.4376 9.68086 46.135 10.1872 46.1118 10.7435C46.0777 11.5304 45.3225 12.0819 44.5575 11.8989L44.4245 11.8671C42.1089 11.3084 40.324 9.46126 39.8458 7.12858L39.819 7.00048C39.5798 5.83048 38.5989 4.95939 37.4094 4.86057C37.2813 4.84959 37.1557 4.83861 37.0373 4.82885C36.4712 4.78005 35.9161 4.96793 35.4977 5.35224L35.3439 5.49254C33.4407 7.24083 31.3008 8.71949 28.9937 9.88339L28.8766 9.94073C25.3093 11.739 22.014 14.0022 19.0713 16.6728C17.8367 17.7915 16.8167 18.7139 16.8167 18.7139C16.3214 19.1604 16.1421 19.8863 16.4275 20.5439C16.685 21.1356 17.3072 21.487 17.9538 21.487H18.0465C18.4601 21.487 18.8578 21.3247 19.1555 21.0368L22.3715 17.9123L23.3682 16.9558C24.3735 15.9884 25.7961 15.5943 27.1564 15.8969L27.2784 15.9249C28.8425 16.2738 30.4626 16.3068 32.0401 16.0225L32.0914 16.014C32.8124 15.8834 33.337 15.2551 33.3358 14.5219V14.5097C33.3358 14.0668 33.0918 13.6825 32.7392 13.4141C32.1426 12.9603 32.0401 12.0965 32.5245 11.5158L34.1227 9.59668C34.3972 9.26606 34.7632 9.02327 35.1731 8.89761L35.2036 8.88785C36.2638 8.56333 37.3887 9.15137 37.7242 10.2079L37.7413 10.2616C38.1866 11.661 39.3615 12.6931 40.7974 12.9542C40.9926 12.9896 41.1842 13.0249 41.3659 13.0579C41.9601 13.1665 42.4652 13.6057 42.5847 14.1974C42.769 15.1136 42.0821 15.92 41.1988 15.9347L40.3704 15.9469C39.0186 15.9688 37.8279 16.8412 37.4009 18.1234L37.3875 18.1624C37.1483 18.8822 37.3362 19.6667 37.8669 20.1938C38.2244 20.5476 38.4318 21.0234 38.4489 21.526C38.5172 23.4488 39.0723 25.3227 40.3448 26.766L41.4099 27.975C42.2248 28.8986 42.7409 30.0503 42.8897 31.2764C42.9446 31.7315 42.8727 32.1939 42.7055 32.6209L42.6372 32.7941C42.1077 34.1508 42.5311 35.6941 43.6803 36.5896L43.7169 36.6176C44.4233 37.1728 45.3029 37.4277 46.1862 37.3338C46.8926 37.2582 47.7564 37.1679 48.4884 37.0898C49.4644 36.9873 50.3172 36.3944 50.7576 35.5184L50.7784 35.4769C51.3103 34.4143 51.159 33.1455 50.3977 32.2427L50.3209 32.1524C49.5449 31.2325 49.2643 29.9942 49.5657 28.8315L49.6389 28.546C49.8548 27.7164 50.5881 27.1235 51.4457 27.0869L51.4884 27.0844C52.2351 27.0527 52.9537 27.3785 53.4222 27.9616L53.5576 28.1288C54.1017 28.8071 54.3299 29.6404 54.2164 30.4639L54.2103 30.5054C54.0883 31.396 54.375 32.2939 54.9935 32.9454L56.0769 34.0849C56.9736 35.0292 58.1912 35.6002 59.4893 35.688L59.565 35.6941C60.7679 35.7746 61.9586 35.4233 62.9237 34.7022C63.0676 34.5936 63.2128 34.4863 63.3531 34.3826C63.9924 33.9104 64.8647 33.9129 65.5016 34.3899L65.5296 34.4106C66.0774 34.8206 66.3483 35.5026 66.2324 36.176L66.0884 37.0105C65.9615 37.7413 66.1714 38.5123 66.7118 39.0199C67.5878 39.8446 68.8932 39.8068 69.7131 39.0345L69.818 38.9357C70.3267 38.4562 71.0368 38.2061 71.7188 38.3537C72.535 38.5306 73.134 39.1553 73.3036 39.9215C73.622 41.3574 74.8506 42.4079 76.3219 42.4115L76.7172 42.4127C77.3687 42.4152 78.0214 42.2456 78.5472 41.8625C79.7782 40.9634 80.0979 39.331 79.3866 38.0621Z" fill="#EFEFEF"/>
<path fill-rule="evenodd" clip-rule="evenodd" d="M73.3622 8.40711C70.7184 6.55757 67.8818 4.96788 64.8769 3.69296L63.9741 4.92396C63.0506 6.18302 62.8151 7.82028 63.3458 9.28919C63.8716 10.7434 65.0807 11.8451 66.5776 12.2319L66.6655 12.2551C67.9062 12.5771 69.0604 13.1737 70.0425 13.9985C70.8026 14.6365 71.8408 14.8293 72.779 14.5072C73.8319 14.1436 74.4675 13.0725 74.2808 11.9732C74.1662 11.2973 73.7526 10.7093 73.1535 10.3726C72.5228 10.0175 72.4508 9.13546 73.0169 8.68284L73.3622 8.40711Z" fill="#F3F3F3"/>
<path fill-rule="evenodd" clip-rule="evenodd" d="M14.2389 48.6019C18.0844 46.0838 23.2426 47.1598 25.7607 51.0053C28.2788 54.8508 27.2028 60.0091 23.3573 62.5272C19.5118 65.0453 14.3523 63.9692 11.8354 60.1238C9.31732 56.2783 10.3934 51.12 14.2389 48.6019Z" fill="#DBDBDB"/>
<path fill-rule="evenodd" clip-rule="evenodd" d="M15.1111 59.7723C12.5929 55.9268 13.669 50.7674 17.5145 48.2493C18.1672 47.8223 18.859 47.5063 19.5678 47.2818C17.7573 47.1122 15.8785 47.527 14.2375 48.6019C10.392 51.12 9.31597 56.2782 11.8341 60.1237C13.9252 63.3165 17.8354 64.5926 21.3039 63.4946C18.8687 63.2665 16.5556 61.9769 15.1111 59.7723Z" fill="#ACA6A2"/>
<path fill-rule="evenodd" clip-rule="evenodd" d="M18.7895 47.6186C17.2462 47.6186 15.7444 48.0676 14.4451 48.9179C10.7801 51.3177 9.75165 56.2514 12.1514 59.9164C13.6252 62.1661 16.1116 63.5093 18.8042 63.5093C20.3487 63.5093 21.8518 63.0604 23.1511 62.21C26.8136 59.8102 27.8433 54.8765 25.4447 51.2115C23.971 48.9618 21.4833 47.6186 18.7895 47.6186ZM18.8042 64.2657C15.8566 64.2657 13.1335 62.7956 11.5195 60.3299C8.89032 56.3173 10.0176 50.9138 14.0315 48.2847C15.4528 47.3538 17.0974 46.8621 18.7896 46.8621C21.7396 46.8621 24.4626 48.3322 26.0767 50.7979C28.7046 54.8105 27.5786 60.2152 23.5647 62.8431C22.1434 63.774 20.4964 64.2657 18.8042 64.2657Z" fill="white"/>
<path fill-rule="evenodd" clip-rule="evenodd" d="M44.9772 80.165C43.5229 79.2377 43.0959 77.3052 44.0231 75.8497C44.9515 74.3955 46.8828 73.9685 48.3383 74.8957C49.7938 75.8241 50.2208 77.7554 49.2924 79.2109C48.3651 80.6664 46.4326 81.0934 44.9772 80.165Z" fill="#E7E7E7"/>
<path fill-rule="evenodd" clip-rule="evenodd" d="M49.2936 79.2109C49.8731 78.302 49.9231 77.2064 49.5242 76.2865C49.4473 76.6293 49.3216 76.9673 49.1216 77.2808C48.1943 78.7363 46.2618 79.1633 44.8063 78.2349C44.261 77.8872 43.8596 77.3979 43.6205 76.8453C43.3399 78.0934 43.8364 79.4378 44.9772 80.1649C46.4326 81.0934 48.3651 80.6664 49.2936 79.2109Z" fill="#ACA6A2"/>
<path fill-rule="evenodd" clip-rule="evenodd" d="M46.662 74.7835C45.7165 74.7835 44.849 75.2593 44.3415 76.0535C43.9474 76.6721 43.8169 77.4077 43.9755 78.1239C44.1341 78.84 44.5623 79.4513 45.1809 79.8466C45.6238 80.1284 46.1325 80.2772 46.6547 80.2772C47.599 80.2772 48.4664 79.8026 48.9739 79.0072C49.368 78.3886 49.4985 77.6542 49.3399 76.938C49.1813 76.2207 48.7531 75.6094 48.1345 75.2141C47.6917 74.9323 47.1842 74.7835 46.662 74.7835ZM46.6548 81.0336C45.9886 81.0336 45.3384 80.8433 44.7735 80.4846C43.9841 79.9807 43.4388 79.1999 43.2363 78.2873C43.0338 77.3735 43.2009 76.4354 43.7035 75.646C44.3514 74.6322 45.4567 74.0258 46.6621 74.0258C47.3282 74.0258 47.9773 74.2174 48.5421 74.576C49.3315 75.0799 49.8768 75.8607 50.0794 76.7733C50.2819 77.6883 50.1147 78.6253 49.6121 79.4146C48.9643 80.4285 47.8589 81.0336 46.6548 81.0336Z" fill="white"/>
<path fill-rule="evenodd" clip-rule="evenodd" d="M85.9417 51.2835C84.274 52.7609 81.7241 52.6072 80.2455 50.9406C78.7668 49.2716 78.9205 46.7218 80.5883 45.2431C82.256 43.7657 84.8071 43.9194 86.2845 45.5872C87.7632 47.255 87.6095 49.8048 85.9417 51.2835Z" fill="#E7E7E7"/>
<path fill-rule="evenodd" clip-rule="evenodd" d="M86.2846 45.5872C85.2415 44.4099 83.6676 44.0036 82.2439 44.3757C82.6929 44.6002 83.1101 44.9077 83.4639 45.3066C84.9426 46.9744 84.7888 49.5242 83.1211 51.0029C82.6306 51.4372 82.0609 51.7141 81.4655 51.8703C82.8954 52.5828 84.6729 52.4071 85.9418 51.2835C87.6095 49.8048 87.7632 47.255 86.2846 45.5872Z" fill="#7C8585"/>
<path fill-rule="evenodd" clip-rule="evenodd" d="M83.2638 44.6051C82.3696 44.6051 81.5095 44.9333 80.8397 45.5262C80.1089 46.1753 79.6746 47.0684 79.6148 48.0444C79.5562 49.0179 79.8795 49.9586 80.5286 50.6894C81.2215 51.4714 82.2207 51.9204 83.2663 51.9204C84.1606 51.9204 85.0207 51.5934 85.6905 50.9992C86.4213 50.3526 86.8568 49.4584 86.9154 48.4836C86.9739 47.5076 86.6494 46.5694 86.0003 45.8374C85.3074 45.0541 84.3106 44.6051 83.2638 44.6051ZM83.2663 52.6768C82.0048 52.6768 80.7994 52.1363 79.9625 51.192C79.1793 50.3087 78.7889 49.1741 78.8596 47.998C78.9304 46.8207 79.455 45.7422 80.3383 44.9601C81.1459 44.2428 82.1854 43.8487 83.2639 43.8487C84.5278 43.8487 85.7308 44.3916 86.5677 45.3359C87.3497 46.218 87.7413 47.3526 87.6706 48.5287C87.5998 49.7048 87.0752 50.7845 86.1931 51.5678C85.3843 52.2827 84.346 52.6768 83.2663 52.6768Z" fill="white"/>
<path fill-rule="evenodd" clip-rule="evenodd" d="M61.1339 83.6518C61.1339 86.0198 59.2148 87.9401 56.8467 87.9401C54.4787 87.9401 52.5583 86.0198 52.5583 83.6518C52.5583 81.2837 54.4787 79.3646 56.8467 79.3646C59.2148 79.3646 61.1339 81.2837 61.1339 83.6518Z" fill="#E7E7E7"/>
<path fill-rule="evenodd" clip-rule="evenodd" d="M57.0187 85.9222C54.8776 85.9222 53.1183 84.3484 52.7987 82.2976C52.6547 82.7258 52.5583 83.176 52.5583 83.6518C52.5583 86.0198 54.4787 87.9401 56.8467 87.9401C59.2148 87.9401 61.1339 86.0198 61.1339 83.6518C61.1339 83.4249 61.1009 83.2065 61.0668 82.9893C60.497 84.6888 58.911 85.9222 57.0187 85.9222Z" fill="#ACA6A2"/>
<path fill-rule="evenodd" clip-rule="evenodd" d="M56.8468 79.7429C54.691 79.7429 52.9366 81.496 52.9366 83.653C52.9366 85.8076 54.691 87.5619 56.8468 87.5619C59.0013 87.5619 60.7557 85.8076 60.7557 83.653C60.7557 81.496 59.0013 79.7429 56.8468 79.7429ZM56.8467 88.3183C54.2737 88.3183 52.1802 86.226 52.1802 83.653C52.1802 81.08 54.2737 78.9852 56.8467 78.9852C59.4198 78.9852 61.5121 81.08 61.5121 83.653C61.5121 86.226 59.4198 88.3183 56.8467 88.3183Z" fill="white"/>
<path fill-rule="evenodd" clip-rule="evenodd" d="M38.6112 12.382C38.6112 14.1925 37.1423 15.6602 35.3318 15.6602C33.5213 15.6602 32.0536 14.1925 32.0536 12.382C32.0536 10.5715 33.5213 9.10257 35.3318 9.10257C37.1423 9.10257 38.6112 10.5715 38.6112 12.382Z" fill="#E7E7E7"/>
<path fill-rule="evenodd" clip-rule="evenodd" d="M35.71 11.1205C36.9446 11.1205 38.0073 11.811 38.566 12.82C38.5856 12.6748 38.6112 12.532 38.6112 12.382C38.6112 10.5715 37.1423 9.10257 35.3318 9.10257C33.5213 9.10257 32.0536 10.5715 32.0536 12.382C32.0536 12.9578 32.2146 13.491 32.4757 13.9607C32.6917 12.36 34.0495 11.1205 35.71 11.1205Z" fill="#ACA6A2"/>
<path fill-rule="evenodd" clip-rule="evenodd" d="M35.3316 9.48204C33.7334 9.48204 32.4316 10.7826 32.4316 12.3808C32.4316 13.9802 33.7334 15.282 35.3316 15.282C36.9311 15.282 38.2328 13.9802 38.2328 12.3808C38.2328 10.7826 36.9311 9.48204 35.3316 9.48204ZM35.3317 16.0384C33.315 16.0384 31.6741 14.3987 31.6741 12.3808C31.6741 10.3653 33.315 8.72559 35.3317 8.72559C37.3496 8.72559 38.9893 10.3653 38.9893 12.3808C38.9893 14.3987 37.3496 16.0384 35.3317 16.0384Z" fill="white"/>
<path fill-rule="evenodd" clip-rule="evenodd" d="M16.2921 37.8425C16.2921 40.5339 14.1107 42.7153 11.4194 42.7153C8.72924 42.7153 6.54785 40.5339 6.54785 37.8425C6.54785 35.1524 8.72924 32.971 11.4194 32.971C14.1107 32.971 16.2921 35.1524 16.2921 37.8425Z" fill="#DBDBDB"/>
<path fill-rule="evenodd" clip-rule="evenodd" d="M8.86345 37.9218C8.86345 35.5855 10.5117 33.6371 12.7065 33.165C12.2941 33.0515 11.8684 32.971 11.4194 32.971C8.72924 32.971 6.54785 35.1524 6.54785 37.8425C6.54785 40.5339 8.72924 42.7153 11.4194 42.7153C11.7732 42.7153 12.1172 42.6726 12.4491 42.6006C10.3872 42.0333 8.86345 40.1655 8.86345 37.9218Z" fill="#ACA6A2"/>
<path fill-rule="evenodd" clip-rule="evenodd" d="M11.4207 33.3492C8.94157 33.3492 6.9261 35.3647 6.9261 37.8425C6.9261 40.3216 8.94157 42.3371 11.4207 42.3371C13.8973 42.3371 15.9128 40.3216 15.9128 37.8425C15.9128 35.3647 13.8973 33.3492 11.4207 33.3492ZM11.4206 43.0935C8.52553 43.0935 6.16968 40.7376 6.16968 37.8425C6.16968 34.9487 8.52553 32.5928 11.4206 32.5928C14.3157 32.5928 16.6692 34.9487 16.6692 37.8425C16.6692 40.7376 14.3157 43.0935 11.4206 43.0935Z" fill="white"/>
<path fill-rule="evenodd" clip-rule="evenodd" d="M69.624 76.389C69.624 78.1995 68.1563 79.6672 66.3458 79.6672C64.5353 79.6672 63.0664 78.1995 63.0664 76.389C63.0664 74.5773 64.5353 73.1096 66.3458 73.1096C68.1563 73.1096 69.624 74.5773 69.624 76.389Z" fill="#E7E7E7"/>
<path fill-rule="evenodd" clip-rule="evenodd" d="M68.2343 73.7147C68.277 73.927 68.3002 74.1466 68.3002 74.3711C68.3002 76.1816 66.8325 77.6493 65.022 77.6493C64.3168 77.6493 63.6678 77.4224 63.1334 77.0442C63.4372 78.5399 64.7597 79.6672 66.3457 79.6672C68.1562 79.6672 69.6239 78.1995 69.6239 76.389C69.6239 75.2825 69.0725 74.3089 68.2343 73.7147Z" fill="#ACA6A2"/>
<path fill-rule="evenodd" clip-rule="evenodd" d="M66.3458 73.4891C64.7476 73.4891 63.4458 74.7896 63.4458 76.3878C63.4458 77.9873 64.7476 79.289 66.3458 79.289C67.9453 79.289 69.2458 77.9873 69.2458 76.3878C69.2458 74.7896 67.9453 73.4891 66.3458 73.4891ZM66.3458 80.0454C64.3292 80.0454 62.6882 78.4057 62.6882 76.3877C62.6882 74.3723 64.3292 72.7314 66.3458 72.7314C68.3613 72.7314 70.0022 74.3723 70.0022 76.3877C70.0022 78.4057 68.3613 80.0454 66.3458 80.0454Z" fill="white"/>
<path fill-rule="evenodd" clip-rule="evenodd" d="M85.7844 30.9507C86.7104 32.3415 86.3334 34.2203 84.9414 35.1463C83.5505 36.0723 81.6717 35.6941 80.7457 34.3033C79.8197 32.9112 80.1967 31.0324 81.5887 30.1064C82.9808 29.1804 84.8596 29.5586 85.7844 30.9507Z" fill="#B1B9BC"/>
<path fill-rule="evenodd" clip-rule="evenodd" d="M81.5887 30.1064C81.4264 30.215 81.2812 30.3382 81.1483 30.4688C82.461 29.9149 84.0214 30.3492 84.84 31.579C85.6587 32.8088 85.4549 34.4155 84.4374 35.4123C84.6107 35.3403 84.7802 35.2537 84.9413 35.1463C86.3333 34.2203 86.7103 32.3415 85.7843 30.9507C84.8595 29.5586 82.9795 29.1816 81.5887 30.1064Z" fill="#7C8585"/>
<path fill-rule="evenodd" clip-rule="evenodd" d="M83.2626 29.9783C82.7405 29.9783 82.2342 30.132 81.7974 30.4211C80.5835 31.2312 80.2516 32.8795 81.0605 34.0934C81.5522 34.8339 82.3769 35.2744 83.2687 35.2744C83.7897 35.2744 84.2948 35.1207 84.7315 34.8315C85.3208 34.4399 85.7222 33.8409 85.8613 33.1479C86.0004 32.4537 85.8613 31.7485 85.4697 31.1605C84.9768 30.4199 84.152 29.9783 83.2626 29.9783ZM83.2687 36.0308C82.1243 36.0308 81.0629 35.4635 80.4309 34.5131C79.3903 32.9515 79.8161 30.8323 81.3777 29.7916C81.9401 29.4183 82.5904 29.2219 83.2626 29.2219C84.4045 29.2219 85.466 29.7892 86.0992 30.7408C86.603 31.4972 86.7824 32.4049 86.603 33.2979C86.4249 34.1886 85.9076 34.9572 85.1512 35.461C84.5912 35.8344 83.9397 36.0308 83.2687 36.0308Z" fill="#F3F2E8"/>
<path fill-rule="evenodd" clip-rule="evenodd" d="M32.2012 52.506C30.5981 52.0314 29.6831 50.3477 30.1577 48.7459C30.6322 47.1428 32.3159 46.2277 33.919 46.7023C35.5221 47.1769 36.4371 48.8605 35.9625 50.4636C35.4879 52.0655 33.8043 52.9805 32.2012 52.506Z" fill="#E7E7E7"/>
<path fill-rule="evenodd" clip-rule="evenodd" d="M35.3317 51.5934C35.0059 51.6068 34.6753 51.5812 34.3447 51.4836C32.7416 51.009 31.8266 49.3254 32.3011 47.7223C32.4293 47.2892 32.6513 46.9122 32.9319 46.5938C31.6765 46.6474 30.5346 47.4722 30.1576 48.7459C29.6842 50.3477 30.598 52.0314 32.2011 52.506C33.3699 52.8524 34.5777 52.4535 35.3317 51.5934Z" fill="#ACA6A2"/>
<path fill-rule="evenodd" clip-rule="evenodd" d="M33.0588 46.9548C31.8949 46.9548 30.8517 47.7356 30.5199 48.852C30.1063 50.2513 30.9091 51.7288 32.3084 52.1448C33.6871 52.5498 35.1962 51.7178 35.6001 50.355C36.0136 48.9557 35.2109 47.4794 33.8115 47.0646C33.5663 46.9914 33.3113 46.9548 33.0588 46.9548ZM33.0612 53.011C32.7342 53.011 32.4085 52.9634 32.0925 52.8695C30.2942 52.3351 29.2633 50.4367 29.7964 48.6372C30.2198 47.2012 31.5618 46.1984 33.0587 46.1984C33.3857 46.1984 33.7115 46.246 34.0274 46.3399C35.8257 46.8718 36.8567 48.7714 36.3235 50.5709C35.8989 52.0081 34.5581 53.011 33.0612 53.011Z" fill="white"/>
<path fill-rule="evenodd" clip-rule="evenodd" d="M76.5207 31.9023C75.674 34.3398 73.0107 35.6294 70.5732 34.7827C68.1343 33.936 66.8448 31.2727 67.6915 28.8339C68.5394 26.3963 71.2027 25.1067 73.6403 25.9534C76.0791 26.8001 77.3687 29.4634 76.5207 31.9023Z" fill="#DBDBDB"/>
<path fill-rule="evenodd" clip-rule="evenodd" d="M73.6404 25.9534C72.1166 25.4239 70.5049 25.7289 69.3044 26.6281C69.8303 26.622 70.3659 26.6866 70.8917 26.8696C73.3293 27.7163 74.6188 30.3796 73.7722 32.8184C73.4549 33.7322 72.8815 34.485 72.1605 35.0242C74.0735 35.0011 75.8572 33.814 76.5209 31.9022C77.3688 29.4634 76.0792 26.8001 73.6404 25.9534Z" fill="#ACA6A2"/>
<path fill-rule="evenodd" clip-rule="evenodd" d="M72.1067 26.0706C70.2803 26.0706 68.6504 27.2308 68.0502 28.9583C67.273 31.1959 68.4613 33.6493 70.6964 34.4252C71.1539 34.5851 71.6272 34.6644 72.1067 34.6644C73.9331 34.6644 75.5642 33.5041 76.1633 31.7778C76.9416 29.5415 75.7534 27.0893 73.5158 26.3109C73.0596 26.1523 72.585 26.0706 72.1067 26.0706ZM72.1068 35.4208C71.5431 35.4208 70.9844 35.3269 70.4488 35.1402C67.8184 34.2276 66.4215 31.3423 67.3353 28.7107C68.0392 26.6806 69.9583 25.3142 72.1068 25.3142C72.6692 25.3142 73.228 25.4093 73.7648 25.5948C76.3964 26.511 77.7933 29.3964 76.8783 32.0267C76.1731 34.0568 74.2552 35.4208 72.1068 35.4208Z" fill="white"/>
<path fill-rule="evenodd" clip-rule="evenodd" d="M46.6583 91.9979C39.3138 91.9979 32.3853 90.2423 26.2487 87.1423C29.0254 87.6571 31.8827 87.9401 34.8071 87.9401C40.9828 87.9401 46.8755 86.7409 52.2692 84.5619C52.6938 86.7018 54.5848 88.3183 56.8467 88.3183C59.4197 88.3183 61.5121 86.226 61.5121 83.653C61.5121 82.4013 61.0167 81.263 60.2127 80.4236C61.2449 79.7514 62.249 79.0401 63.2238 78.291C63.8667 79.3427 65.0257 80.0454 66.3458 80.0454C68.3613 80.0454 70.0022 78.4057 70.0022 76.3878C70.0022 75.208 69.4397 74.1564 68.5687 73.4866C74.2979 67.4817 78.4435 59.9468 80.3296 51.5604C81.1336 52.2753 82.1792 52.6767 83.2662 52.6767C84.3459 52.6767 85.3842 52.2827 86.193 51.5677C87.0751 50.7845 87.5997 49.7048 87.6705 48.5287C87.7412 47.3526 87.3496 46.218 86.5676 45.3359C85.7307 44.3916 84.5277 43.8487 83.2638 43.8487C82.6037 43.8487 81.9584 43.9963 81.3715 44.2757C81.4337 43.285 81.4655 42.2883 81.4655 41.2818C81.4655 39.2333 81.3337 37.2142 81.0775 35.2366C81.4801 35.5745 81.9571 35.8149 82.4708 35.9381C82.6135 36.7604 83.1869 37.4399 83.9714 37.7193V37.7205C84.2679 37.8254 84.5753 37.8779 84.8803 37.8779C85.5257 37.8779 86.1601 37.6473 86.6615 37.2081C87.1447 36.7848 87.4619 36.204 87.5558 35.5684C87.6339 35.0353 88.0633 34.6473 88.5623 34.6473C88.6575 34.6473 88.7551 34.6619 88.8539 34.6912L90.54 35.2085C91.4928 38.8649 91.9991 42.7019 91.9991 46.6584C91.9991 71.6993 71.6992 91.9979 46.6583 91.9979ZM83.6359 25.7033C83.2687 25.7033 82.9087 25.5862 82.6257 25.3349C81.9022 24.6956 81.9193 23.6134 82.5891 22.9949L84.313 21.4015C84.9889 22.4068 85.6257 23.4402 86.2211 24.4992C85.6404 24.9006 85.0291 25.2556 84.3813 25.5423C84.1446 25.6484 83.8884 25.7033 83.6359 25.7033ZM76.6269 18.1758C76.2499 18.1758 75.8619 18.0148 75.5569 17.7427C75.369 17.5743 75.1421 17.4694 74.9079 17.4292C74.2966 16.4056 73.6476 15.4064 72.9619 14.4352C73.905 14.0168 74.4565 13.0066 74.2808 11.9732C74.1661 11.2973 73.7525 10.7093 73.1535 10.3726C72.818 10.1835 72.6399 9.84553 72.6325 9.5027C74.3357 10.6947 75.951 12.0001 77.4711 13.408C77.4906 14.1876 77.598 14.9672 77.7981 15.7321L77.9213 16.2067C78.0787 16.8118 77.8871 17.456 77.4187 17.8781C77.1893 18.0843 76.9111 18.1758 76.6269 18.1758Z" fill="#DBDBDB"/>
<path fill-rule="evenodd" clip-rule="evenodd" d="M84.8803 37.8779C84.5753 37.8779 84.2678 37.8254 83.9714 37.7205V37.7193C83.1869 37.4399 82.6135 36.7603 82.4707 35.9381C82.7294 35.9991 82.9966 36.0308 83.2686 36.0308C83.9396 36.0308 84.5911 35.8344 85.1511 35.461C85.9075 34.9572 86.4248 34.1885 86.6029 33.2979C86.7823 32.4049 86.6029 31.4972 86.0991 30.7408C85.4659 29.7892 84.4045 29.2219 83.2625 29.2219C82.5903 29.2219 81.94 29.4183 81.3776 29.7916C80.9237 30.0942 80.5663 30.487 80.3125 30.9323C79.2169 26.1035 77.3735 21.5601 74.9078 17.4292C75.1421 17.4694 75.369 17.5743 75.5569 17.7427C75.8619 18.0148 76.2499 18.1758 76.6268 18.1758C76.9111 18.1758 77.1893 18.0843 77.4186 17.8781C77.8871 17.456 78.0787 16.8118 77.9213 16.2067L77.7981 15.7321C77.598 14.9672 77.4906 14.1876 77.4711 13.408C80.0478 15.7943 82.3463 18.4784 84.313 21.4015L82.5891 22.9949C81.9193 23.6134 81.9022 24.6956 82.6257 25.3349C82.9087 25.5862 83.2686 25.7033 83.6358 25.7033C83.8884 25.7033 84.1446 25.6484 84.3813 25.5423C85.0291 25.2556 85.6403 24.9005 86.2211 24.4992C88.0926 27.831 89.5542 31.4228 90.5399 35.2085L88.8539 34.6912C88.755 34.6619 88.6574 34.6473 88.5623 34.6473C88.0633 34.6473 87.6338 35.0352 87.5558 35.5684C87.4618 36.204 87.1446 36.7847 86.6615 37.2081C86.1601 37.6473 85.5257 37.8779 84.8803 37.8779Z" fill="#B6B6B6"/>
<path fill-rule="evenodd" clip-rule="evenodd" d="M63.9948 4.89472C63.8814 4.80322 63.7667 4.71172 63.652 4.62144C63.7923 4.67878 63.9302 4.7349 64.0692 4.79346L63.9948 4.89472Z" fill="#AEB4B5"/>
<path fill-rule="evenodd" clip-rule="evenodd" d="M72.962 14.4352C70.4317 10.8496 67.4109 7.6373 63.9949 4.8947L64.0693 4.79344C67.1047 6.05738 69.9742 7.64096 72.6326 9.50271C72.6399 9.84554 72.818 10.1835 73.1536 10.3726C73.7526 10.7093 74.1662 11.2974 74.2808 11.9733C74.4565 13.0066 73.9051 14.0168 72.962 14.4352Z" fill="#B6B6B6"/>
<path fill-rule="evenodd" clip-rule="evenodd" d="M81.9987 51.6934C81.4387 51.4873 80.9324 51.1444 80.5286 50.6894C80.5249 50.6857 80.5225 50.682 80.5188 50.6796C80.8872 48.8801 81.152 47.0439 81.3057 45.1749C81.7327 44.904 82.211 44.7247 82.71 44.6478C82.982 44.8308 83.237 45.0492 83.4639 45.3066C84.9426 46.9744 84.7889 49.5242 83.1211 51.0029C82.7795 51.3055 82.3988 51.5312 81.9987 51.6934Z" fill="#B6B6B6"/>
<path fill-rule="evenodd" clip-rule="evenodd" d="M83.2663 51.9203C82.8295 51.9203 82.4013 51.8423 81.9987 51.6934C82.3988 51.5312 82.7795 51.3055 83.1211 51.0029C84.7888 49.5242 84.9426 46.9744 83.4639 45.3066C83.237 45.0492 82.982 44.8308 82.7099 44.6478C82.8929 44.6198 83.0772 44.6051 83.2638 44.6051C84.3106 44.6051 85.3073 45.0541 86.0003 45.8373C86.6494 46.5693 86.9739 47.5075 86.9153 48.4836C86.8568 49.4584 86.4212 50.3526 85.6904 50.9992C85.0206 51.5934 84.1605 51.9203 83.2663 51.9203Z" fill="#A0A0A0"/>
<path fill-rule="evenodd" clip-rule="evenodd" d="M83.2663 52.6768C82.1793 52.6768 81.1337 52.2754 80.3297 51.5604C80.3956 51.2676 80.459 50.9736 80.5188 50.6796C80.5225 50.682 80.5249 50.6857 80.5286 50.6894C80.9324 51.1444 81.4387 51.4872 81.9987 51.6934C82.4013 51.8423 82.8295 51.9204 83.2663 51.9204C84.1606 51.9204 85.0207 51.5934 85.6905 50.9992C86.4213 50.3526 86.8568 49.4584 86.9154 48.4836C86.9739 47.5075 86.6494 46.5693 86.0004 45.8373C85.3074 45.0541 84.3106 44.6051 83.2639 44.6051C83.0772 44.6051 82.893 44.6198 82.71 44.6478C82.211 44.7247 81.7327 44.904 81.3057 45.1749C81.3301 44.8772 81.3521 44.5758 81.3716 44.2757C81.9584 43.9963 82.6038 43.8487 83.2639 43.8487C84.5278 43.8487 85.7307 44.3916 86.5677 45.3359C87.3497 46.218 87.7413 47.3526 87.6706 48.5287C87.5998 49.7048 87.0752 50.7845 86.1931 51.5678C85.3842 52.2827 84.346 52.6768 83.2663 52.6768Z" fill="#DDDCD5"/>
<path fill-rule="evenodd" clip-rule="evenodd" d="M57.0188 85.9223C55.5474 85.9223 54.2579 85.1793 53.4893 84.0495C55.5987 83.1272 57.6276 82.0524 59.5601 80.8409C60.297 81.5521 60.7557 82.5501 60.7557 83.653C60.7557 83.6689 60.7557 83.6847 60.7557 83.6994C60.0286 85.0219 58.6353 85.9223 57.0188 85.9223Z" fill="#B6B6B6"/>
<path fill-rule="evenodd" clip-rule="evenodd" d="M56.8468 87.5619C54.8997 87.5619 53.2807 86.1309 52.9855 84.2667C53.1538 84.1947 53.3222 84.1227 53.4893 84.0495C54.258 85.1793 55.5475 85.9222 57.0189 85.9222C58.6354 85.9222 60.0286 85.0219 60.7558 83.6994C60.7302 85.8332 58.9855 87.5619 56.8468 87.5619Z" fill="#787471"/>
<path fill-rule="evenodd" clip-rule="evenodd" d="M56.8468 88.3184C54.5849 88.3184 52.6939 86.7019 52.2693 84.5619C52.5084 84.4656 52.7475 84.3667 52.9854 84.2667C53.2807 86.1309 54.8996 87.562 56.8468 87.562C58.9855 87.562 60.7301 85.8332 60.7557 83.6994C60.7557 83.6847 60.7557 83.6689 60.7557 83.653C60.7557 82.5501 60.297 81.5522 59.5601 80.8409C59.7785 80.703 59.9969 80.5639 60.2128 80.4236C61.0168 81.263 61.5121 82.4013 61.5121 83.653C61.5121 86.226 59.4198 88.3184 56.8468 88.3184Z" fill="#DDDCD5"/>
<path fill-rule="evenodd" clip-rule="evenodd" d="M65.0221 77.6493C64.7293 77.6493 64.4463 77.6103 64.1779 77.5383C65.5284 76.4427 66.818 75.2715 68.038 74.0344C68.1283 74.1003 68.2149 74.1698 68.2979 74.2455C68.2991 74.2869 68.3003 74.3284 68.3003 74.3711C68.3003 76.1816 66.8326 77.6493 65.0221 77.6493Z" fill="#B6B6B6"/>
<path fill-rule="evenodd" clip-rule="evenodd" d="M66.3459 79.289C65.2686 79.289 64.3255 78.6973 63.8253 77.8213C63.9437 77.7261 64.0596 77.6334 64.1779 77.5383C64.4463 77.6102 64.7294 77.6493 65.0222 77.6493C66.8327 77.6493 68.3003 76.1816 68.3003 74.3711C68.3003 74.3284 68.2991 74.2869 68.2979 74.2454C68.8799 74.7761 69.2459 75.5399 69.2459 76.3878C69.2459 77.9872 67.9453 79.289 66.3459 79.289Z" fill="#787471"/>
<path fill-rule="evenodd" clip-rule="evenodd" d="M66.3458 80.0454C65.0257 80.0454 63.8667 79.3427 63.2238 78.291C63.4251 78.1361 63.6264 77.9787 63.8252 77.8213C64.3254 78.6973 65.2685 79.289 66.3458 79.289C67.9452 79.289 69.2458 77.9873 69.2458 76.3878C69.2458 75.5399 68.8798 74.7762 68.2978 74.2455C68.2148 74.1698 68.1282 74.1003 68.0379 74.0344C68.2173 73.8526 68.393 73.672 68.5687 73.4866C69.4397 74.1564 70.0022 75.208 70.0022 76.3878C70.0022 78.4057 68.3613 80.0454 66.3458 80.0454Z" fill="#DDDCD5"/>
<path fill-rule="evenodd" clip-rule="evenodd" d="M83.2687 35.2744C82.3768 35.2744 81.5521 34.834 81.0604 34.0934C80.9823 33.9763 80.914 33.8543 80.8567 33.7299C80.7859 33.2943 80.7091 32.8588 80.6261 32.4281C80.6859 31.6424 81.0934 30.8909 81.7973 30.4212C81.901 30.3529 82.0084 30.2919 82.1194 30.2382C82.1877 30.2345 82.2548 30.2321 82.3219 30.2321C83.2992 30.2321 84.2581 30.7042 84.84 31.579C85.4623 32.5135 85.494 33.6676 85.0255 34.6046C84.934 34.6864 84.8352 34.762 84.7315 34.8315C84.2947 35.1207 83.7896 35.2744 83.2687 35.2744Z" fill="#A8A89D"/>
<path fill-rule="evenodd" clip-rule="evenodd" d="M85.0255 34.6046C85.494 33.6676 85.4622 32.5135 84.84 31.5789C84.2581 30.7042 83.2991 30.232 82.3219 30.232C82.2548 30.232 82.1877 30.2345 82.1194 30.2381C82.4756 30.0673 82.8648 29.9783 83.2625 29.9783C84.1519 29.9783 84.9767 30.4199 85.4696 31.1605C85.8612 31.7485 86.0003 32.4537 85.8612 33.1479C85.7477 33.7188 85.4549 34.2252 85.0255 34.6046Z" fill="#ACA6A2"/>
<path fill-rule="evenodd" clip-rule="evenodd" d="M83.2686 36.0308C82.9965 36.0308 82.7294 35.9991 82.4707 35.9381C81.9571 35.8148 81.4801 35.5745 81.0775 35.2366C81.0116 34.7315 80.9384 34.23 80.8566 33.7298C80.914 33.8543 80.9823 33.9763 81.0604 34.0934C81.552 34.8339 82.3768 35.2744 83.2686 35.2744C83.7896 35.2744 84.2946 35.1207 84.7314 34.8315C84.8351 34.762 84.9339 34.6863 85.0254 34.6046C85.4549 34.2252 85.7477 33.7189 85.8611 33.1479C86.0002 32.4537 85.8611 31.7485 85.4695 31.1605C84.9766 30.4199 84.1519 29.9783 83.2625 29.9783C82.8648 29.9783 82.4756 30.0673 82.1193 30.2381C82.0083 30.2918 81.901 30.3528 81.7973 30.4211C81.0933 30.8908 80.6858 31.6424 80.626 32.4281C80.5297 31.9254 80.4247 31.4277 80.3125 30.9323C80.5663 30.487 80.9237 30.0942 81.3776 29.7916C81.94 29.4183 82.5903 29.2219 83.2625 29.2219C84.4044 29.2219 85.4659 29.7892 86.099 30.7408C86.6029 31.4972 86.7823 32.4049 86.6029 33.2979C86.4248 34.1886 85.9075 34.9572 85.1511 35.461C84.5911 35.8344 83.9396 36.0308 83.2686 36.0308Z" fill="#FAFAFA"/>
</svg>
